/* XPM */
static char *_6e01c8c553d4752e883b285614e5fd5IEuXuG4rFnpG0OLJ[] = {
/* columns rows colors chars-per-pixel */
"250 30 121 2 ",
"   c None",
".  c #FFFE00",
"X  c #FFFE0C",
"o  c #FEFD14",
"O  c #FEFD1D",
"+  c #FDFC24",
"@  c #FCFB2C",
"#  c #FBFA33",
"$  c #FAF93C",
"%  c #F8F746",
"&  c #F9F842",
"*  c #F7F64C",
"=  c #F5F454",
"-  c #F3F25B",
";  c #EFEF67",
":  c #EDED6C",
">  c #F0EF64",
",  c #F1F061",
"<  c #EBEA73",
"1  c #E6E67D",
"2  c #E8E77A",
"3  c #E9E879",
"4  c #0029FF",
"5  c #0E2DFF",
"6  c #102EFE",
"7  c #1630FE",
"8  c #1C33FE",
"9  c #2237FD",
"0  c #2639FD",
"q  c #2C3DFC",
"w  c #3342FB",
"e  c #3846FA",
"r  c #3C49FA",
"t  c #414DF9",
"y  c #4B55F7",
"u  c #4651F8",
"i  c #545CF5",
"p  c #5760F4",
"a  c #5C64F3",
"s  c #676DEF",
"d  c #696FEF",
"f  c #6C73ED",
"g  c #7076EC",
"h  c #757AEA",
"j  c #797EE8",
"k  c #6067F1",
"l  c #636AF0",
"z  c #7E83E6",
"x  c #BBBCBC",
"c  c #DEDE8D",
"v  c #DBDB93",
"b  c #D5D59C",
"n  c #D8D898",
"m  c #E0DF8B",
"M  c #E4E383",
"N  c #E1E189",
"B  c #CECEA6",
"V  c #C7C7AF",
"C  c #C9CAAC",
"Z  c #D0CFA4",
"A  c #D2D1A1",
"S  c #C1C1B6",
"D  c #C2C3B5",
"F  c #C2C4B5",
"G  c #C4C5B2",
"H  c #8B8FDF",
"J  c #8D91DE",
"K  c #8C90DF",
"L  c #8D91DE",
"P  c #999CD7",
"I  c #9A9DD7",
"U  c #9B9ED6",
"Y  c #9C9FD5",
"T  c #9C9FD6",
"R  c #9B9ED6",
"E  c #9497DB",
"W  c #9094DC",
"Q  c #9094DD",
"!  c #9296DC",
"~  c #9497DA",
"^  c #969AD9",
"/  c #979AD9",
"(  c #9598DA",
")  c #989CD8",
"_  c #989BD8",
"`  c #9FA2D3",
"'  c #9DA0D4",
"]  c #9DA0D5",
"[  c #9EA1D4",
"{  c #9DA0D4",
"}  c #A7AACD",
"|  c #A6A9CE",
" . c #ADAFC9",
".. c #A8ABCC",
"X. c #A9ACCC",
"o. c #ABADCB",
"O. c #AFB1C7",
"+. c #AEB1C8",
"@. c #B5B7C2",
"#. c #B4B6C3",
"$. c #B1B3C5",
"%. c #B0B3C6",
"&. c #B2B4C4",
"*. c #B3B5C4",
"=. c #B3B5C4",
"-. c #B5B8C1",
";. c #B7B9C0",
":. c #B7B9C0",
">. c #A0A3D3",
",. c #A2A5D1",
"<. c #A4A7D0",
"1. c #A1A4D2",
"2. c #8185E5",
"3. c #8186E4",
"4. c #8287E4",
"5. c #8387E4",
"6. c #8185E5",
"7. c #868AE2",
"8. c #878BE2",
"9. c #8589E3",
"0. c #898DE0",
/* pixels */
"                                                                                                                                                                4 4 4 4                                               4 4                                               4 4 4 4                                                                                                                                                                                                                                     ",
"                                                                                                                                                              4 4 4 j g 4                                       4 4 4 4                         4 4 4 j z             4 Q - , %.4                                                                                                                                                                                                                                   ",
"                                                                                                                                                            4 4 Q 1 . T 4                                   4 4 4 a N m 4                     4 4 x < . '             4 ; . . . 7.                                                                                                                                                                                                                                  ",
"                      4 4 4 4 4 4 4 4                                                                                                                       4 1 . . . T 4                                 4 4 4.n X . ; 4                     4 < . . . U             4 , . . . g 4                                                                                                                                                                                                                                 ",
"                    4 5.Z ; # # ; B 0.7 4                                                                                                                 4 4 . . . . T 4                                 4 C . . . . - 4                   4 4 . . . . U 4           4 Q , # G 4 4                                                                                                                                                                                                                                 ",
"                  4 C X . . . . . . . , / 4                                                                                                         4 4 4 4 4 . . . . ' 4                                 4 : . . . . # 4         4         4 4 . . . . U 4 4 4           4 4 4 4                                                                                                                                                                                                                                   ",
"                4 x . . . . . . . . . . . #.4                                                                                             4 4 4 4 4 4 4 4 g c . . . . ' 4             4 4 4 4 4 4         4 V v . . . . 9       4 4 4 4 4 4 h Z . . . . U 4 4 4 4 4       4 4 4 q             4 4                                                                                                                                                                                                                   ",
"              4 a @ . . . . . . . . . . . X 4.          4 4 4 4 4 4 4 4 4 4 4 4 4 4                   4 4 4 4 4 a 4 4 4 4 4 4 4 4 4     4 4 4 4 4 4 5 ) N . . . . . . x 4 4 4 4     4 u 5 4 4 4 4         4 4 4 . . . . i 4   4 4 4 4 5 ` : . . . . . . U 4 4 4 4     4 4 4 l D * 4       4 4 4 4 4 4 4 4 4 4 4 4 4 4                                                                                                                                                                                               ",
"              4 x . . . . . . . . . . . . < h 4 4 4 4 4 4 4 4 4 D b N 3 | A ; # * B q 4 4     4 4 4 4 4 4 4 h . . c > V 1 % O $ B q 4 4 4 4 e ;.< # O . . . . . . . . . . . b 4 4 4 4 < + * < A a   4 4 4 4 4 4 . . . . f 4 4 e G - + X . . . . . . . . . . . V 4     9 U c X . . 4 4 4 4 4 4 4 4 4 v 3 - $ b A < $ = D q                                                                                                                                                                                           ",
"              4 N . . . . . . . . . . # :.9 4 4 4 i x : @ = v +.. . . . . . . . . . M w 4 4 4 4 t ;.: O o + X . . . . . . . . . . 3 t 4 4 4., . . . . . . . . . . . . . . . v 4 4 4 4 * . . . . l 4 4 4 . . . . . . . . z 4 z = . . . . . . . . . . . . . . . V 4   4 N . . . . . 4 4 i S < + $ ;   . . . . . . . . . . c q 4                                                                                                                                                                                       ",
"              4 - . . . . - f e j b M f 4 4 4 4 ..# . . . o . . . . . . . . . . . . . b 4 4 4 ` % . . . . . . . . . . . . . . . . . G 4 *.# . . . * $ . . . . . . . . . . . c 4 4 4 4 # . . . . u 4 4 7 . . . . . . . . H E # . . . O O . . . . . . . . . . . G 4   q @ . . . . . 4 ,.@ . . . . . . . . . . . . . . . . . A 4 4                                                                                                                                                                                     ",
"              4 + . . . . E 4 4 4 9 7   4 4 4 A . . . < F o . . . . . . . . $ O . . . . Q 4 @.o . . >   o . . . . . . . . . . . . O %.k + . . X +.5 * . . . . . . . . . . . v 4   4 4 . . . . . q 4 4 u . . . . . . . . %.@ . . X B 7 $ . . . . . . . . . . . A 4   g v , . . . . %.X . . *   O . . . . . . . . M $ . . . . Q 4                                                                                                                                                                                     ",
"              4 . . . . . r 4   4 4 q   4 4   . . . M 5 :.. = . . . . . . : 0 +.. . . . < 7.o . . M 4 y % . . . . . . . M y v . < h 4 A . . . < 4 4 - . . . . . . . . ' 4 4   4 4   4 . . . . . 5 4 4 g . . . . . . . . # . . . G 4 4 , . . . . . . . . ' 4 4 4 4 4 4 4 *.. . . . . . . $ 6 ;.. v . . . . . . : 9 U . . . . v 4                                                                                                                                                                                     ",
"              4 + . . . . s 4 4 4 h < d 4   o . . . O.4 k )   . . . . . . <.4 8 = . . . o M . . . @.4 4 4 . . . . . . . U 4 q %.8 4 4 - . . . A 4 4 ,.. . . . . . . . ,.4 4 4 4 w g 4 O . . . . e 4 4 1.. . . . . . . . . . . . %.4 4 Y . . . . . . . . ' 4 4 4 4 q g 4 D . . . . . . .   4 a ) h . . . . . . X.4 8 = . . . % 4                                                                                                                                                                                     ",
"              4 * . . . . n i y ,.* . * 0.4 + . . . v 6 4 4 n . . . . . . k 4 4 B . . . . . . . . = H q a . . . . . . . k 4 4       4 + . . . = 4 4 o.. . . . . . . . ' 4 4 4 | - < 4 * . . . . h 4 4 b . . . . . . . . . . . . ; 4 4 ` . . . . . . . . ' 4 4 4 ` - : 4 C . . . . . . . X     4 A . . . . . . k 4 4 B . . . . l 4                                                                                                                                                                                   ",
"              4 M . . . . . . . . . . . + +.O . . . . 1 :.b . . . . . . . w 4 4 | . . . . . . . . . . . . . . . . . . . w 4 4     4 4 $ . . . . < h D . . . . . . . . X.4 7 * . . . f < . . . . x 4 y # . . . . . . . . . . . . . v h | . . . . . . . . ..4 7 : . . . f X.. . . . . . . . .   * . . . . . . . w 4 4 | . . . . 0.4                                                                                                                                                                                   ",
"              4 G . . . . . . . . . . . . M & . . . . . . . . . . . . . . 5 4 4 4.. . . . . . . . . . . . . . . . . . . 5 4 4     4 4 < . . . . . . . . . . . + . . . M y ;.. . . . / C . . . . & h C . . . . : . . . . . . . . . . . . . . . . O . . . c t C . . . . / ' . . . . . . . . . . . . . . . . . . 5   4 4.. . . . U 4                                                                                                                                                                                   ",
"              4 h X . . . . . . . . . . . K M . . . . . . . . . . . . . . q 4 4 i . . . . o . . . . . . . . . . . . . . 0 4 4       4 V . . . . . . . . . . . M . . . . . . . . . . 5.z . . . . . . . . . . . +.. . . . . . . . . . . . . . . . 3 . . . . . . . . . . 4.' . . . . . . . . . . . . . . . . . . w   4 p . . . . K 4                                                                                                                                                                                   ",
"                4 B . . . . . . . . . . x 4 / . . . . . . . . + . . . . . y 4 4 r . . . . G . . . . . . . . . . . . . . r 4 4       4 s + . . . . . . . . . . X.. . . . . . . . . - 0 4 b . . . . . . . . . c 4 . . . . # + . . . . . . . . . . U . . . . . . . . . = 9 ' . . . . . . . . . . . . @ . . . . . y   4 r . . . . 4.4                                                                                                                                                                                   ",
"                  w v . . . . . . . O *.4 4 4 c . . . . . . ,   X . . . . d 4 4 5 . . . . a G . . . . . . . . . . . . . a 4 4       4 4 <.X . . . . . . . . . 4 X.+ . . . . . . % 8.4 4 q b . . . . . . . 3 y 4 . . . . < <.X . . . . . . . . . 4 *.X . . . . . . + K 4 U . . . . V . . . . . . , 4.M . . . . d 4 4 5 . . . . a                                                                                                                                                                                     ",
"                    6 ' v $ o + - G k 4 4   4 4 ' > + $ : x t   - @ $ * M i     4 . . . @ 5 5 1.1 * $ M b . . . . . . # f 4 4         4 4 z n % + ; M . . . . 4 4 f b = @ & M x i 4     4 4 4.B ; @ % 1 *.e 4 4 . . . . , 4 z v % + ; M . . . . 4 4 K , @ X o + =   4 4 ' . . . . 4 U M # & 1 *.r 4 A = $ @ - d 4 4 4 . . . # 6                                                                                                                                                                                     ",
"                      4 4 4 4 4 4 4 4         4 4 4 4 4 4 4   4 4 4 4 4 4         4 4 4 4     4 4 4 4 4 f . . . . h t 4 4 4               4 4 4 4 4 4 4 4 4 4 4 4 4 4 4 4 4 4 4             4 4 4 4 4 4 4 4 4 4 . . . . % 4 4 4 4 4 4 4 4 4 4 4 4 4 4 4 4 4 4 4 4 4 4 4 o.. . . . 4 4 4 4 4 4 4 4 4 4 4     4 4 4 4 4 4 4 4 4                                                                                                                                                                                       ",
"                                                  4 4 4 4                                 h 1.4 4     4 t . . . @ 4 4                                                                                       4 4 . . . . X 7       4 4                 4 4 4 4 4 4 4 4 4 @.. . . . 4 4 4               4 4 4 4 4                                                                                                                                                                                                     ",
"                                                                                        4 b . A u 4   4 7 . . . = 4 4                                                                                         4 . . . . . y                                         4 4 4 4 4 4 4 4 4                                                                                                                                                                                                                               ",
"                                                                                        4 = . . - h 4 4 u . . . > 4 4                                                                                         4 4   4 4 4 4                                                 4 4 4 4                                                                                                                                                                                                                                 ",
"                                                                                        4 o . . . x 4 4 E . . . < 4 4                                                                                           4 4 4 4 4 4                                                                                                                                                                                                                                                                                         ",
"                                                                                      4 4 + . . . @ B C $ . . . c 4                                                                                                                                                                                                                                                                                                                                                                                                 ",
"                                                                                      4 4 N . . . . . . . . . . 1.4                                                                                                                                                                                                                                                                                                                                                                                                 ",
"                                                                                        4 f & . . . . . . . . V 4 4                                                                                                                                                                                                                                                                                                                                                                                                 ",
"                                                                                          4 g N . . . . . - ,.4 4                                                                                                                                                                                                                                                                                                                                                                                                   "
};
