/* XPM */
static char *c10bd84cd3f84bfbf14b0991f81b4288onBQrahsaauWp84Y[] = {
/* columns rows colors chars-per-pixel */
"30 30 147 2 ",
"   c None",
".  c #000000",
"X  c #080000",
"o  c #140503",
"O  c #1D0F0E",
"+  c #151101",
"@  c #080E11",
"#  c #120E10",
"$  c #0A1016",
"%  c #1F1111",
"&  c #220203",
"*  c #280407",
"=  c #2D0C05",
"-  c #270C04",
";  c #330001",
":  c #390001",
">  c #300E06",
",  c #3F0E07",
"<  c #34010C",
"1  c #340909",
"2  c #3C080B",
"3  c #291502",
"4  c #351700",
"5  c #361B00",
"6  c #3A1C00",
"7  c #361408",
"8  c #341A11",
"9  c #3B1F10",
"0  c #2F2400",
"q  c #3F2103",
"w  c #3E201D",
"e  c #191623",
"r  c #322428",
"t  c #362D39",
"y  c #410101",
"u  c #46070E",
"i  c #4A0E0D",
"p  c #4B1C05",
"a  c #49130A",
"s  c #530013",
"d  c #570A10",
"f  c #5E0B11",
"g  c #62160E",
"h  c #63190D",
"j  c #6E1D0F",
"k  c #651104",
"l  c #711004",
"z  c #601110",
"x  c #6B1212",
"c  c #6D1810",
"v  c #432502",
"b  c #462D02",
"n  c #4C2B03",
"m  c #4D2504",
"M  c #5D2A08",
"N  c #5D2608",
"B  c #4C3301",
"V  c #4C3901",
"C  c #4B320E",
"Z  c #523402",
"A  c #593602",
"S  c #563902",
"D  c #5E3900",
"F  c #47331B",
"G  c #632105",
"H  c #662E05",
"J  c #692E05",
"K  c #64240B",
"L  c #662C09",
"P  c #6A2D09",
"I  c #70220E",
"U  c #732F0B",
"Y  c #693307",
"T  c #6A3308",
"R  c #6E3A08",
"E  c #713100",
"W  c #75300B",
"Q  c #713C08",
"!  c #6A2911",
"~  c #402525",
"^  c #463326",
"/  c #4B3B2F",
"(  c #43373F",
")  c #5F4700",
"_  c #634501",
"`  c #6A4503",
"'  c #634C0C",
"]  c #744607",
"[  c #794506",
"{  c #754A04",
"}  c #7B4A05",
"|  c #734008",
" . c #7E5105",
".. c #765F1B",
"X. c #664A22",
"o. c #675624",
"O. c #785B2D",
"+. c #635437",
"@. c #6A6139",
"#. c #092045",
"$. c #443842",
"%. c #34454B",
"&. c #4F4349",
"*. c #41494D",
"=. c #4C564C",
"-. c #504657",
";. c #6A624E",
":. c #716D4D",
">. c #7B7150",
",. c #58686E",
"<. c #6C706F",
"1. c #707161",
"2. c #737074",
"3. c #844700",
"4. c #804E06",
"5. c #825605",
"6. c #835D02",
"7. c #895609",
"8. c #955F05",
"9. c #8C6301",
"0. c #926302",
"q. c #9A6700",
"w. c #966C02",
"e. c #986F01",
"r. c #A16906",
"t. c #A07501",
"y. c #BE951D",
"u. c #B89635",
"i. c #D4B919",
"p. c #CDA321",
"a. c #9C8A49",
"s. c #AC9C67",
"d. c #AE9D6B",
"f. c #B3A87D",
"g. c #FFD54D",
"h. c #5D7B85",
"j. c #6E839B",
"k. c #71879A",
"l. c #7D8C9B",
"z. c #9A998B",
"x. c #858C95",
"c. c #84929B",
"v. c #9A9997",
"b. c #BBAEB0",
"n. c #B3B5B9",
"m. c #C7C190",
"M. c #DED1AA",
/* pixels */
"                                                            ",
"                                                            ",
"                  ; : a < < : ; ; i ; u u                   ",
"                o C ' ^ C X 3 X./ S { O.e m                 ",
"            w.7.+ y.i.@...p.>.u.f.0 g.1.@ ` 7.              ",
"            e.8.n s.m.<.o.a.+.d.z.. M.#.X r.5.              ",
"            0.P p t -.( 5 . % &.r o $.O - U L               ",
"            0.= q q = 6 b n v 4 v Z 6 B B B [               ",
"            9.* K 5.] 5.} } {  .5.5.5.5.] V }               ",
"            9.= K R Q R Q Q Q R R R R R L V [               ",
"            9.= K R R R R Q Q R Q Q Q Q M V [               ",
"            9.1 N R R Y T T T T T T T T M V [               ",
"            6.* K T T R R T R R R T R T N b }               ",
"            t.v a L T P T T T Y Y Y J E p S                 ",
"              S 1 W T Y L Y L P Y Y M Y v _                 ",
"              Z 2 P T P Y P Y Y H L v.n.F D                 ",
"              Z < I T P L P P L P h 2.x.w )                 ",
"              Z < j P K L K P K P L $ $ 8 _                 ",
"              Z < j L K K K K K h P ,.<.^ Y                 ",
"              Z < j h h h h h h h h ~ ~ 7 _                 ",
"              Z < c g g g g g g h z k l , )                 ",
"              B < x g h h h h h h h h c 2 )                 ",
"              6.1 f h z g z g z z z x d v {                 ",
"              w.> f x x x x x x x c x s B 5.                ",
"              q.& : y y y y y : : y y ; q 3.                ",
"              :.*.%.%.%.%.%.%.%.%.%.%.%.=.;.                ",
"              j.c.c.c.c.c.c.c.c.c.c.c.c.c.k.                ",
"              b.b.b.b.b.b.b.b.b.b.b.b.b.b.b.                ",
"                                                            ",
"                                                            "
};
