/* XPM */
static char *e1bbbf88a1864e33f8d883eea7a1328ea0ZigoT56I3oeHXJ[] = {
/* columns rows colors chars-per-pixel */
"30 30 2 1 ",
"  c None",
". c #0C3FA6",
/* pixels */
"    .....................     ",
"    .....................     ",
"    .....................     ",
"    .....................     ",
"    .....................     ",
"    .....................     ",
"    .......                   ",
"    .......                   ",
"    .......                   ",
"    .......                   ",
"    .......                   ",
"    ....................      ",
"    ....................      ",
"    ....................      ",
"    ....................      ",
"    ....................      ",
"    ....................      ",
"    .......                   ",
"    .......                   ",
"    .......                   ",
"    .......                   ",
"    .......                   ",
"    .......                   ",
"    .......                   ",
"    .....................     ",
"    .....................     ",
"    .....................     ",
"    .....................     ",
"    .....................     ",
"    .....................     "
};
