/* XPM */
static char *_d6a9a6acd1d47d1846c540f73ae6e8fzZQnnOZsaUmpTk1P[] = {
/* columns rows colors chars-per-pixel */
"30 30 10 1 ",
"  c #387050",
". c #60B058",
"X c #509068",
"o c #78D860",
"O c #78C070",
"+ c #80D070",
"@ c #98E078",
"# c #D8C060",
"$ c #F0D868",
"% c #F8E8A0",
/* pixels */
"OoooOoO+++O+oOoOOoooOoO+++O.oO",
"ooOOoO+++o+oOoOOooOOoO+++o+oOo",
"oOOOO++o+@O+oOOooOOO.++o+.O+oO",
"OO+OOoo+@@+@+OooO.+.OXX.@@.@+.",
"O+oOooo+oo@@++o.O..X.X.X...@..",
"+o++o+++++@o+@+..........XX...",
"o++o++++++oo@@++..+.......X..@",
"+++++@+++@++@o+o+.++..+......o",
"++++@@++@@++oo++++++@.+.@..+.o",
"++++@o++@o+oO+O++++.@o++@o+oO+",
"+o++o+++o+oOOOoO+o++o+++o+oOOO",
"o++O+++oooOoOoOOo++O+++oooOo.o",
"++OOO+oooooOOOOo+..OO+ooo.oOOO",
"+OO++oooooOOOOO++OO++oooooOO.O",
"OOOooooo+ OOOOooOOOooooo+OOOOO",
"OOoooOo+ . O  oOOO#$.$o++ooOoo",
"OoooOoO+ .X .. O.#$$#$#+++O+oO",
"ooOOoO++ X .. OO..#%#$$.+#$o$o",
"oOOOO++.. XX ..o.$$%%#..#$$#$#",
"OO+OOoo.. X ...o.#$#$$$..#%#$$",
"O+oOooo+......oOO.$$.$..$$%%#.",
"+o++o++++....@+o+o......#$#$$$",
"o +o++++++oo@@++o++.$.$..$$.$.",
" . +  +++@++@o+o++#$$#$#.....o",
" .X .. +@@++oo++++.#%#$$.@++oo",
" X .. ++@o+oO+O+++$$%%#..o+oO+",
". XX ..+o+oOOOoO+o#$#$$$.+oOOO",
". X ...oooOoOoOOo+.$$.$..oOoOo",
"......oooooOOOOo++O.....oooOOO",
"+....oooooOOOOO++OO++oooooOOOO"
};
