/* XPM */
static char *f0e99b122b7d4936acfe1e3ac4e00f66GIFRdd5MdJZmTXUk[] = {
/* columns rows colors chars-per-pixel */
"96 59 235 2 ",
"   c None",
".  c #000000",
"X  c #0B0400",
"o  c #0D0A00",
"O  c #01040B",
"+  c #02090D",
"@  c #0B0B0C",
"#  c #120C01",
"$  c #1C0C00",
"%  c #190502",
"&  c #161400",
"*  c #1C1400",
"=  c #1A1900",
"-  c #000B16",
";  c #071518",
":  c #230600",
">  c #271600",
",  c #351500",
"<  c #2A2300",
"1  c #382900",
"2  c #282517",
"3  c #001729",
"4  c #06212A",
"5  c #062A38",
"6  c #493800",
"7  c #6D3E00",
"8  c #7C4700",
"9  c #9C0000",
"0  c #920000",
"q  c #890000",
"w  c #A30101",
"e  c #AB0000",
"r  c #B40202",
"t  c #BD0502",
"y  c #B31117",
"u  c #BD2600",
"i  c #B31A24",
"p  c #B82D2F",
"a  c #C40100",
"s  c #C90000",
"d  c #D60500",
"f  c #CA140F",
"g  c #EE1400",
"h  c #C62A00",
"j  c #CA2800",
"k  c #D92700",
"l  c #DC3200",
"z  c #D03A12",
"x  c #EB2A00",
"c  c #F12B00",
"v  c #FE2A00",
"b  c #FD2500",
"n  c #EB3300",
"m  c #E63600",
"M  c #F33400",
"N  c #FC3400",
"B  c #F23B02",
"V  c #FE3C01",
"C  c #F22F10",
"Z  c #CF2E2F",
"A  c #864C00",
"S  c #9A4900",
"D  c #9A5701",
"F  c #865100",
"G  c #A55300",
"H  c #AD5D01",
"J  c #A55A00",
"K  c #A84F00",
"L  c #957400",
"P  c #AD6200",
"I  c #A16700",
"U  c #B26400",
"Y  c #B46C00",
"T  c #BC6B00",
"R  c #BB6504",
"E  c #A87A00",
"W  c #BC7400",
"Q  c #B87500",
"!  c #B96A14",
"~  c #BA711D",
"^  c #AC7227",
"/  c #DD5A03",
"(  c #D3421D",
")  c #E54500",
"_  c #FF4200",
"`  c #F64701",
"'  c #FD5D02",
"]  c #F45A03",
"[  c #F04F0D",
"{  c #C76900",
"}  c #D26D02",
"|  c #DD6C00",
" . c #C77403",
".. c #D87603",
"X. c #D67A15",
"o. c #C97315",
"O. c #E96407",
"+. c #F26303",
"@. c #FE6302",
"#. c #FF6903",
"$. c #F76D06",
"%. c #E47504",
"&. c #FF7203",
"*. c #F77606",
"=. c #FF7616",
"-. c #E47F10",
";. c #FF6B34",
":. c #FF7A4A",
">. c #FF7558",
",. c #FF7669",
"<. c #B88B00",
"1. c #AA8300",
"2. c #BBB200",
"3. c #C78400",
"4. c #D58801",
"5. c #CB9800",
"6. c #DC9C00",
"7. c #D59A00",
"8. c #E98F08",
"9. c #DCA300",
"0. c #D8A800",
"q. c #DFB900",
"w. c #C0B900",
"e. c #E3AB00",
"r. c #E5A800",
"t. c #E6B300",
"y. c #E9B300",
"u. c #EBBB00",
"i. c #E1B900",
"p. c #F5B900",
"a. c #F4AD00",
"s. c #D9D001",
"d. c #EDC200",
"f. c #E9CE00",
"g. c #E7CB00",
"h. c #FDC300",
"j. c #FCCB00",
"k. c #F3C700",
"l. c #EBD300",
"z. c #E7DA00",
"x. c #FED200",
"c. c #F4DD00",
"v. c #F8DB00",
"b. c #EEE400",
"n. c #EFE800",
"m. c #F6E200",
"M. c #FCE500",
"N. c #F4E900",
"B. c #FAED00",
"V. c #FAEF0D",
"C. c #FCF200",
"Z. c #FFFD00",
"A. c #F8F806",
"S. c #FBF323",
"D. c #C89250",
"F. c #FD8858",
"G. c #FC944A",
"H. c #E9AA5B",
"J. c #F6AD52",
"K. c #F89068",
"L. c #F2B769",
"P. c #FFC370",
"I. c #FFC15D",
"U. c #004A99",
"Y. c #115396",
"T. c #34579C",
"R. c #2D5F8A",
"E. c #005AB7",
"W. c #0252AA",
"Q. c #0463B9",
"!. c #007BB8",
"~. c #0E61B1",
"^. c #266BA7",
"/. c #475F9E",
"(. c #0057C4",
"). c #0165C9",
"_. c #0478D5",
"`. c #0573C7",
"'. c #0073E4",
"]. c #2695B8",
"[. c #0082BE",
"{. c #0587C9",
"}. c #008AD6",
"|. c #0595D9",
" X c #1B89C5",
".X c #26A9CF",
"XX c #0499E2",
"oX c #0297E5",
"OX c #139FE3",
"+X c #0095EC",
"@X c #01A2F2",
"#X c #00A3FA",
"$X c #02ABFD",
"%X c #04B4FF",
"&X c #08A9F2",
"*X c #2DBCEC",
"=X c #36BDEB",
"-X c #2BBFF2",
";X c #4BB8DC",
":X c #40B9E6",
">X c #13CFFF",
",X c #36C1EE",
"<X c #2DC2F6",
"1X c #29C9FB",
"2X c #34CAFA",
"3X c #3ACDFD",
"4X c #33C6F6",
"5X c #29DBFF",
"6X c #27D6FF",
"7X c #35D3FE",
"8X c #3BD3FF",
"9X c #3ADCFF",
"0X c #37D8FF",
"qX c #26C4EA",
"wX c #3CE9FF",
"eX c #3FF7FF",
"rX c #41D3FF",
"tX c #42FAFF",
"yX c #A2ACB4",
"uX c #94A5B4",
"iX c #CAB5AA",
"pX c #FDDE91",
"aX c #FBD88B",
"sX c #FEE398",
"dX c #FFECA3",
"fX c #96ADD3",
"gX c #8BB7D1",
"hX c #B3BDC5",
"jX c #B8C8CB",
"kX c #C6CCCD",
"lX c #D4DBF1",
"zX c #D4E9F4",
"xX c #FEFFFE",
"cX c #F8F9FC",
"vX c #F6F2F1",
/* pixels */
"    M M                                                                                                                                                                                         ",
"    M n                                                                                                                                                                                         ",
"    B M                                                                                                                                                                                         ",
"    n M                         . . . . . . . . . .                                                                                                                                             ",
"    M n                         . . . . . . . . . .                                                                                                                                             ",
"    M M M M                 . . h l / / / / / / l h . .                                                                                                                                         ",
"    B M n M                 . X N _ &.&.&.&.&.#.V N X .                                                                                                                                         ",
"M M c n :.F.            . X j n ' #.#.#.#.#.#.#.#.@.m j X .                     . .                                                                 . . . . . . . . . . . . . .                 ",
"M M M B F.K.            . X N _ #.#.#.#.#.#.#.#.&.#._ N X .                     . .                                                                 O . + . O O O O O X O O . O                 ",
"x M >.F.#.@.c c         . . +.#.#.#.#.#.@.#.@.#.#.#.#.+.. .                     . .                                                             . . U.E.{.|.*X,X*X*X,XqX|.{.E.U.. .             ",
"M B F.F.&.@.B M         X $ +.&.@.#.#.#.#.#.@.#.#.#.&.+.$ X                     . .                                                             O - Q._.@X$X7X9X9X0X9X7X$X@X_.Q.- O             ",
"' $.B.C.K.>.B N     . X k v &.&.#.#.#.#.#.#.#.#.#.@.' ' _ c X .             . . . . . .                         . . . .                     . O U.Q.<X7X4X2X4X2X2X2X2X2X2X4X7X<XQ.U.O .         ",
"@.&.A.Z.F.:.M N     . % C [ O.O.#.#.#.#.#.#.#.#.#.@.=.=.B l X .             . . . . . .                         & & = =                     . O Q._.2X9X2X3X2X2X4X2X3X4X2X3X7X2X_.Q.O .         ",
"' $.C.C.&.' M N     . @ xXxXO . +.#.#.#.#.#.@.#.' =.xXxX@ . . .             . . . . . .                     . . 7.h.Z.N.o .                 . . -X9X3X3X2X2X1X2X2X2X4X2X2X2X3X3X0X,X. .         ",
"@.&.S.S.&.' M N     . @ zXlXO . +.&.#.@.@.#.#.#.@.$.lXlX+ . . .             . . $ $ . .                     > < t.x.Z.C.o .                 ; 4 4X9X<X<X2X2X2X2X2X2X2X2X2X2X<X<X9X4X4 3         ",
"@.=.cXxX=.#.        . . X . . X +.#.#.#.#.#.#.#.&.+.X . . . . .         . . . . T T . .                 . o 9.h.B.Z.Z.b.. . . .         . + }.$X5X5XoX}.2X3X2X2X4X2X1X2X3X2XoX}.5X5X$X}.+ .     ",
"] O.cXvXO.[         . . . . . X +.&.#.#.#.#.#.#.&.+.. . O @ . .         . . # *  .W $ X                 . o t.j.C.C.Z.b.< & & &         . + XX%X:X=XOXOX<X2X2X4X2X2X2X2X2X<XOXOX:X=X$XXX+ .     ",
". @ K.K.% X         . O T.T.. . +.#.#.#.#.@.@.#.&.+.. O T.T.O .         . X 9.p.t.e.T J X .             . . b.Z.C.C.C.C.N.N.A.b.o .     . + 1X8Xw a xXxXXXoX4X3X4X2X2X2X|.|.xXxXa w rX1X+ .     ",
". . :.:.. .         . O /./.O . +.&.#.#.#.#.#.#.#.+.X . /./.+ .         . o t.j.u.t.3.U X .             . # N.Z.C.C.C.C.Z.Z.Z.C.o .     . + 6XrXr s vXxX|.oX1X2X2X2X2X4XoX|.xXvXs r rX6X+ .     ",
". X V B X .         . X O.=.O.+.#.#.#.#.#.@.#.#.#.#.+.O.$.O.X .         . o b.Z.C.M.p.7.o .         . o 9.k.B.C.C.C.Z.Z.Z.Z.Z.C.o .     . + 5XrXr r ; ; *X7X2X2X2X2X2X2X7X-X4 @ r r rX6X+ .     ",
". X v c X .         . X @.&.&.#.#.#.#.#.#.#.#.#.#.#.&.&.&.' X .         . o N.Z.Z.C.j.0.o .         . o 9.j.N.C.C.B.N.m.b.b.A.z.o .     . + <X,Xy t . . ,XwX2X2X2X2X2X2X9X,XX . r y rX1X+ .     ",
". X N B . .         . . B _ #.&.#.#.#.#.@.#.#.@.#.#.#.#.V m . .         . o n.Z.C.C.h.9.. . . . . . . . . X A.Z.j.0.. . . . . . . . . . . . + @ :.:.a w =X5X3X3X2X2X2X2X5X=Xw a ;.F.%X@X+ .     ",
". X B N : X         # : j c ' #.@.#.#.#.#.#.#.#.#.#.@.@.V x % X         . o b.Z.A.M.p.0.= = & & & & & & X o b.C.p.7.X . X . . X & $ . . . . . X K.K.y y =X6X<X<X2X2X2X<X5X,Xy y K.K.|._.+ .     ",
". X V V N m X . . . &.&.. . N _ &.&.&.#.#.#.#.#.&.#._ N M x t w X .     . o y.x.C.C.e.e.B.C.C.B.B.C.C.B.t.9.P G G P 9.i.C.Z.Z.Z.x.y.o . . . . + 7XwX8X2X5X6X#X#X6X6X#X#X>X5X7X2XwX3XX .         ",
". X h m _ M X . $ > #.#.X X h l ] ] @.@.@.@.@.@.' ] k j ` B d r X .     . o <.9.B.C.i.u.Z.Z.Z.Z.Z.Z.Z.Z.j.p.W Y Y W p.j.C.Z.B.M.y.5.o . . . . + .XqX1X6X;X;X X X;X;X X X;X;X6X1XqX.X3 +         ",
"    . . M N . . &.&._ N a 9 . . r d N V V V V N d r . . $.&.V k . .     . . . . b.Z.C.C.B.B.C.B.C.C.C.N.C.C.C.C.Z.Z.Z.Z.x.p...R . . . .     . . . . $X%XV v v b b b v v v V %X$X. . @X+X. .     ",
"    . . N M . . @.#.j j d t : $ q w j j h j j h w q $ : +.@._ m , >     . . # > N.Z.C.C.C.C.C.C.B.C.C.C.C.C.Z.C.B.M.m.z.5.<.I A . . . .     4 4 - - `.{.h k z ( z z ( ( x h {.`.- - +X@X5 4     ",
"    . X V V . . V V . . m V V n . . . . . . . . . . c V N V &.&.*.&.X . . X G  .N.Z.C.C.C.B.B.C.B.C.C.C.C.C.C.B.y.6.R S . . . .         . . 8XwX).W.. . O O #X>X%X%X%X+X. . . . (.'.XX@XwX8X@ . ",
"    . X j j : : j h . . m V N n 1 < < < * * * * * > m ` u u ' @.#.' X . . X Y 4.B.Z.B.C.C.B.C.C.C.C.C.B.B.C.C.B.d.y.3.P . . . .         4 5 3X7X_.Q.3 - 2 2 !.{.!.`.+X|.2 2 > > R.^.{.oX6X-X- . ",
"        . . d d . . . . x N c B p.k.p.p.{ R T T T T  .I . . M V V N X . . o 9.h.M.C.Z.Z.C.B.C.C.C.B.B.C.C.C.B.C.Z.Z.h.9.o .         . + +X%X3X3X@XXX).Q.P.J.O . . X (.).P.I.X.} $.} W.E.$X@X+ . ",
"        . . w w . . % : m V c B y.u.k.u.W T W W  .W W I $ % h l l h X . . o 0.j.S.S.s.s.B.C.C.N.C.B.C.C.C.B.S.S.s.s.j.0.o .         . + }.#X-X2X&XXX).~.H.J.> % $ * Y.^.H.J.X.X.%.o.^.`.}.!.O . ",
"            . . . X w a #.&.c n y.f.Z.C.t.e.t.t.y.t.Y P V c X . . .     . O n.A.xXxXO . b.Z.C.B.C.C.C.B.B.V.xXxXO . Z.Z.. .         . O E._.+X#X9X3X).W.! | } } } } } } { { H.L.} X.hXyXX .     ",
"            . . . X r d #.#.M B 6.t.B.B.u.t.u.y.u.t.Y U _ B . . . .     X * n.A.vXlXO . b.Z.C.B.C.C.C.C.C.V.vXlXO . Z.Z.* X         . O U.Q.|.OX4X=X).T.o.| X.4.X.X.| ..o.X.H.H.} o.yXhX. .     ",
"                . X B _ #.&.&.@.e e y.v.Z.Z.u.y.u.t.Y Y &.#.X .     . X D T Z.A.O O S R N.Z.B.C.Z.Z.C.N.Z.b.O . S R Z.Z.T S o .         . o } o.E.E.} %.H.L.sXdXdXpX{ } dXdX%.| %...kXjX@ .     ",
"                . X j m +.@.&.@.r r 4.e.m.N.9.9.e.9.U H #.] X .     . X R 4.M.c.o o Y 4.M.Z.C.C.s.z.C.C.Z.b.o o Q 4.M.v.4.Y X .         . X | -.~.Q.~ X.H.H.pXpXdXpXX.X.pXpX~ ! ! ~ uXuXO .     ",
"                    . . n _ &.&._ N a t  . . .W R H a a t w X .     . o q.p.c B Z.Z.C.B.C.C.Z.b.. . b.Z.C.C.C.C.Z.A.M c p.q.o .         . X | 8.iXhX+X}.} +.%.-.L.P.L.L.*.} W.E.Q.W.. .         ",
"                    X % k M ] ] l j 9 0 S D D D ^ ^ 0 9 p i . .     . o 0.y.c c x.B.C.Z.B.C.Z.m.= = N.Z.B.C.Z.Z.B.j.c c a.0.o .         . X J ! yXgX#X@X^ ~ H H D.D.D.D.! ^ Q.)._.Q.. .         ",
"                . X e a e w r w . . . . . . . + zXzX. O zXzX- .     . X Q ..c g g c M.Z.B.C.C.Z.Z.Z.Z.C.C.B.Z.M.n g v N ..Q X .             . O }.#X2X3X%X#XO . . . . O )._.$X$X%X@X+ .         ",
"                . X p Z t t Z p . . . . . . . O fXfX. . fXfX@ .     . X F D ` ` C [ M.Z.C.C.m.m.m.c.m.M.B.C.Z.M.[ C B l D F X .             . O |.%X3X2X}.!.O . . . . . U.W.!.{.{.!.O .         ",
"                . @ xXxXN V xXxX@ .             . .     . .         . . . . 0.h.,.,.B.A.C.B.y.6.S K 6.r.B.C.A.B.K.,.4.Q . .                 . + 8XtXeX7X. .             . . . . . .             ",
"                . @ jXkXu u kXjX@ .             . .     . .         > > < 1 d.j.G.G.C.A.C.B.d.i.<.3.y.d.C.C.Z.M.G.:.D 8 . .                 . @ ]..X.X].O .             . . . . . .             ",
"                    . . . . . .                                 . o U  .a.h.Z.Z.Z.Z.C.C.C.C.Z.Z.Z.Z.Z.Z.C.B.Z.Z.p.5.. .                         X . . . . .                                     ",
"                    . . . . . .                                 . o W 4.d.k.g.g.m.M.C.C.B.B.m.c.m.m.c.m.C.B.m.c.x.i.6 1                         . . . . . .                                     ",
"                                                                . # p.M.Z.Z.K S 6.e.B.C.Z.M.r.6.r.r.6.r.C.C.r.t.A.Z.M.h.o .                                                                     ",
"                                                                . X 1.5.c.z.W T t.d.B.C.C.C.d.i.e.e.u.u.C.C.6.9.C.C.a.5.o .                                                                     ",
"                                                                    . . D { r.u.Z.Z.Z.Z.Z.Z.Z.C.e.r.C.Z.Z.N.H P Z.Z.T S . .                                                                     ",
"                                                                    . . J { u.f.l.l.g.f.c.m.C.C.d.d.B.C.Z.N.U H l.l.3.Y 1 >                                                                     ",
"                                                                    . X S W Z.Z.H S S K r.p.C.C.C.C.C.C.Z.M.H K S G t.y.} H o .                                                                 ",
"                                                                    . X P 3.c.c.W Y Q W 9.0.B.C.C.C.N.C.Z.M.3.Q Q  .u.d.4.Y X .                                                                 ",
"                                                                    . o t.p.H H r.u.Z.Z.{ { C.Z.C.C.C.C.C.B.A.Z.Z.Z.Z.Z.j.t.o .                                                                 ",
"                                                                    . o t.p.U P y.k.Z.C.F A c.B.C.C.C.C.B.C.C.C.C.C.B.m.y.5.X .                                                                 ",
"                                                                    . o h.v. . .C.Z.Z.N.. . 0.h.Z.Z.Z.Z.Z.Z.Z.Z.Z.Z.x.p...R X .                                                                 ",
"                                                                    . X 1.<.A F N.Z.C.z.. . 5.a.g.l.g.g.v.m.f.g.w.2.<.E D 8 X .                                                                 ",
"                                                                        . . . . N.Z.j.9.. . T ..{ { {  .j.h.T S . . . . . .                                                                     ",
"                                                                        . . . o z.C.r.4.. . 8 F 8 8 8 8 E 1.Y H 6 1 . . . .                                                                     ",
"                                                                            . # h.x...R X . . . . . . . . . T 8.C.M.# .                                                                         ",
"                                                                            . o L E 8 7 X . . . . . . . . . 8 A 1.L X .                                                                         ",
"                                                                                . . . .                     . . . .                                                                             ",
"                                                                                . . . .                     . . . .                                                                             "
};
