/* XPM */
static char *fee1f9f6c19d428fe248e35aa502c4fdZqWf5yl6bwikWjqr[] = {
/* columns rows colors chars-per-pixel */
"98 63 224 2 ",
"   c None",
".  c #000000",
"X  c #0B0400",
"o  c #0C0A00",
"O  c #00050B",
"+  c #02090C",
"@  c #0B0C0C",
"#  c #120300",
"$  c #1C0600",
"%  c #180B02",
"&  c #141200",
"*  c #1B1300",
"=  c #1E1D00",
"-  c #1A130E",
";  c #000B15",
":  c #051519",
">  c #220700",
",  c #251600",
"<  c #372700",
"1  c #26220F",
"2  c #041A25",
"3  c #0A2B34",
"4  c #4A3900",
"5  c #6B3900",
"6  c #4D4A00",
"7  c #7C4900",
"8  c #940000",
"9  c #A30101",
"0  c #AC0000",
"q  c #B40201",
"w  c #BC0401",
"e  c #B60900",
"r  c #B31116",
"t  c #913C00",
"y  c #B62300",
"u  c #C60200",
"i  c #D30600",
"p  c #CB140E",
"a  c #F31C00",
"s  c #E61800",
"d  c #CD2600",
"f  c #CB2C00",
"g  c #C42800",
"h  c #D72B00",
"j  c #D93501",
"k  c #D43F19",
"l  c #EA2700",
"z  c #F32D00",
"x  c #FE2B01",
"c  c #F72600",
"v  c #E33300",
"b  c #EB3700",
"n  c #F33400",
"m  c #FC3400",
"M  c #F33B01",
"N  c #FF3C00",
"B  c #FF3D08",
"V  c #884900",
"C  c #9A4C00",
"Z  c #995700",
"A  c #815000",
"S  c #A34C00",
"D  c #A85600",
"F  c #B45B02",
"G  c #9F7500",
"H  c #AC6600",
"J  c #B36400",
"K  c #B46A00",
"L  c #BB6A00",
"P  c #BA6500",
"I  c #BE7400",
"U  c #B87700",
"Y  c #B46A12",
"T  c #B97728",
"R  c #CA5803",
"E  c #D95A03",
"W  c #D5421D",
"Q  c #EB4601",
"!  c #FF4200",
"~  c #F34100",
"^  c #E15D03",
"/  c #FF5C00",
"(  c #F95604",
")  c #F94E1C",
"_  c #CD6B02",
"`  c #C56702",
"'  c #D56F02",
"]  c #C77604",
"[  c #D97407",
"{  c #CC7210",
"}  c #D67A14",
"|  c #E86305",
" . c #F26303",
".. c #FD6403",
"X. c #FF6903",
"o. c #F56C05",
"O. c #E17604",
"+. c #FF7203",
"@. c #F97705",
"#. c #FF7616",
"$. c #ED7A11",
"%. c #F7592B",
"&. c #FF6B34",
"*. c #FA7849",
"=. c #F97152",
"-. c #FF7767",
";. c #BB8600",
":. c #A29A00",
">. c #A58200",
",. c #ABAA00",
"<. c #B3AB00",
"1. c #D58700",
"2. c #CC9400",
"3. c #D59D00",
"4. c #DD9B00",
"5. c #D39600",
"6. c #C38300",
"7. c #E18C00",
"8. c #DDA400",
"9. c #D8A800",
"0. c #D0B800",
"q. c #E5AB00",
"w. c #E6A700",
"e. c #E5B300",
"r. c #EAB300",
"t. c #EABB00",
"y. c #E2BD00",
"u. c #F7BC00",
"i. c #F1AE00",
"p. c #D4CF00",
"a. c #EAC800",
"s. c #FDCC00",
"d. c #F6C200",
"f. c #E8D900",
"g. c #FFD400",
"h. c #F3DC00",
"j. c #F9D906",
"k. c #EDE300",
"l. c #EEEC01",
"z. c #F5E300",
"x. c #F9E500",
"c. c #F5E900",
"v. c #FAED00",
"b. c #FAEE0D",
"n. c #FCF100",
"m. c #FFFD00",
"M. c #FAF60A",
"N. c #FAF91B",
"B. c #FC8558",
"V. c #FF8D56",
"C. c #E7A657",
"Z. c #FBAD50",
"A. c #FF8864",
"S. c #FC9268",
"D. c #EC956E",
"F. c #EDB266",
"G. c #F5B768",
"H. c #CD9855",
"J. c #FFC465",
"K. c #00499A",
"L. c #1B579B",
"P. c #315997",
"I. c #005CBB",
"U. c #0551A8",
"Y. c #0263B8",
"T. c #007AB7",
"R. c #246BA9",
"E. c #475F9D",
"W. c #0057C3",
"Q. c #0674CE",
"!. c #006EE3",
"~. c #2798BD",
"^. c #0284C7",
"/. c #018AD4",
"(. c #0293D9",
"). c #1A8AC6",
"_. c #1FABD9",
"`. c #2DAECB",
"'. c #2FAED6",
"]. c #0192E2",
"[. c #019DEA",
"{. c #0599E3",
"}. c #129DE2",
"|. c #009BF1",
" X c #01A3EE",
".X c #00A4FA",
"XX c #02ABFE",
"oX c #01A2F2",
"OX c #06B6FF",
"+X c #10B2FF",
"@X c #2DBDEA",
"#X c #38BDEB",
"$X c #4AB6DC",
"%X c #46BAE3",
"&X c #1CD6FF",
"*X c #35C1EE",
"=X c #2AC7F9",
"-X c #30C7F9",
";X c #34CAFA",
":X c #38C9F7",
">X c #29DAFF",
",X c #27D5FF",
"<X c #36D4FF",
"1X c #3ADCFF",
"2X c #3BD2FE",
"3X c #26C4EB",
"4X c #3DE8FF",
"5X c #3EF9FF",
"6X c #41D3FF",
"7X c #41F8FF",
"8X c #8C9DAC",
"9X c #9DAFBE",
"0X c #A3ADB6",
"qX c #FDDC8E",
"wX c #FEE499",
"eX c #FFEEA6",
"rX c #BBBEC0",
"tX c #A7BCCE",
"yX c #CAD0D1",
"uX c #C5CACE",
"iX c #FEFFFE",
"pX c #F5FAFD",
"aX c #F3EEF0",
"sX c #D7DEF8",
/* pixels */
"                n n                                                                                                                                                                                 ",
"                n b                                                                                                                                                                                 ",
"                n n                                                                                                                                                                                 ",
"            n n                                                                                                                                                                                     ",
"            b n                                                                                                                                                                                     ",
"        n n z z n n             . . . . . . . . . .                                                                                                                                                 ",
"        b n n n n b             . . . . . . . . . .                                                                                                                                                 ",
"    n n c b x.x.M z         . . g v ^ ^ E ^ | E v g . .                                                                                                                                             ",
"    n n l ~ m.m.~ c         . # m ! X.+.+.+.+.X.! m # .                                                                                                                                             ",
"    l n =.B.+...n m     . X d b ..X.X.X.X.X.X.X.X...b d X .                                                                                         . . . . . . . . . . . . . .                     ",
"    z M B.A.X./ M N     . X n ! X.X.X.X.X.X.X.X.X.X.! n # .                                                                                         . O O O + + + + + O O O O +                     ",
"    A.B.( X.n.l.....    . .  .X...X.X.X.X.X.X.X.X.X.X. .. .                                                                                     . . K.I./.(.@X*X@X*X*X@X(./.I.K.. .                 ",
"    A.B.X.+.m.m.#.o.    # $ o.+.X.X.X...X.X.X.X.X.X.+. .$ #                                                                                     + ; Y.Q.|.+X<X1X<X1X1X<XXXoXQ.Y.; +                 ",
"X.X./ X.x.m.m.n.V.=.. . s z X.+.X.X.X.X.X.X.X.X.X.X./ / N n X .     . .                                                                     . O K.Y.-X<X;X;X-X;X;X;X;X;X;X-X;X-XY.K.O .             ",
"X.../ +.N.N.b.j.S.A.. . ) ) ^ | X.X...X...X.X.X...X.#.#.M h # .     . .                                                                     . + Y.Q.;X<X;X;X;X;X;X;X;X;X:X;X<X:XQ.Y.O .             ",
"    B.S.pXiXA.B.    . @ iXiXO .  .X.X.X.X.X.X.../ #.iXiX@ . . .     . . . .                                         . . . .                 . O *X1X2X;X;X-X;X-X-X:X;X-X;X;X2X;X4X@X. .             ",
"    =.B.pXpX=.=.    . @ pXpXO .  .X.X.X.X.X.X.X...#.pXsX+ . . .     . . . .                                         o o & o                 + : *X4X=X-X-X;X-X;X;X;X;X;X;X;X-X-X4X*X: +             ",
"    # % #.#.& +     . . . o . #  .+.X.X...X...X.X. .- @ . . . .     . . . . . .                                 . . f.l.l.f.o .         . + Q.[.>X>X].(.;X2X:X;X;X-X;X;X2X;X(.(.>X>X[.Q.+ .         ",
"    . . / / . .     . . . O . #  .+.X.X.X.X.X.X.+. .. . @ ; . .     . . o o . .                                 & = n.m.m.n.& .         . + [.OX%X#X}.}.-X-X;X:X;X-X;X;X;X=X}.}.#X#XOX[.+ .         ",
"    . X m n X .     . O P.P.O .  .+.X.X.X...X.X.+. .. . P.P.+ .     . X J J . .                             . o 3.u.v.n.m.l.. . . .     . + ,X:X9 w iXiX{.].-X<X;X;X;X-X].{.iXiXu 9 :X,X+ .         ",
"    . X n n X .     . + E.E.O X  .X.X.X.X.X.X.X.X. .X O E.E.+ .     . X ] ] X o                             . o q.g.v.n.m.k.& . . o     . + ,X6X0 u aXiX(.{.-X;X;X;X:X-X].{.iXaXu 0 6X,X+ .         ",
"    . X m M . .     . X | $.( | X.X...X...X...X.X.X.| | $.| X .     . o 3.u.l.p.. .                         . . v.m.m.m.m.m.n.n.m.k.o . . @ >X6Xq q @ 2 @X<X:X-X-X;X;X-X<X@X: : q q 6X,X+ .         ",
"    . X n n $ X     . X ..X.+.+.X.X.X.X.X.X.X.X.X.X.+.+.X...o .     . o 9.s.m.m.* .                         o & k.l.k.c.k.c.m.n.m.c.o . . + =X*Xr w . . *X6X<X;X;X;X;X;X1X*X. . q p :X=X+ .         ",
"    . X m N N n . . . . n ! X.X.X.X...X.X...X.X.X.X.X.X.! m . . . . . o 8.s.m.c.L C o .                 . o u.u.o . . . . . . . . . . . . . + @ *.*.u 0 *X>X;X2X;X-X2X;X>X#X9 u &.B.+X|.+ .         ",
"    . X j b m v $ $ # > d b / X.X.X.X.X.X.X.X.X.X.X.X./ v d > # # # . o 3.u.n.v.1.K o .                 . o e.r.o . . . . . . o . . . . . . . X D.S.r r #X>X-X-X-X;X-X-X,X#Xr r B.D.(.^.+ .         ",
"        . . . . h m +.o.. . m ! X.@.X.X.X.X.X.X.@.+.! m . . o.+.N h . . J 1.x.m.m.k.. . . . . . . . . . . . . . D J D H 4.r.n.m.g.r.o . . . . . ;X7X;X;X>X&X|..X,X,X.X.X,X>X2X:X4X<XO .             ",
"        . . X $ M ! +...X . g v ( / X........... .( j d . X ..X.! M $ $ V H c.m.m.c.= * = = = = = = = = = = o & U 1.I ] u.s.m.n.t.2.o . . . : 2 _.3X,X=X%X$X).).$X$X).).$X%X,X=X3X_.: +             ",
"        . X l N X.+.! m u 9 . . q i m B N N N m i q . . 9 u m ! +.X.N l . . c.m.n.v.r.q.n.m.n.n.n.m.n.n.m.n.q.q.n.m.m.m.m.m.g.r.X . . . . . |.oX. . XX+X! x x c x c x c x B +XXX. . |. X. .         ",
"        . # M ! ....j g i e $ $ 8 8 g f f f f g 9 8 $ $ w i d j ..X.! M . . f.m.n.n.d.d.m.m.m.m.m.m.m.m.m.m.u.d.n.m.v.x.c.f.9.;.. . . . 2 3 oX X; O Q.^.g l k W k k W k s f ^.^.+ ; oXoX3 2         ",
"        . # @.@.! m . . v N x l . . . . . . . . . . z N ! v . . m ! @.@.. . 8.s.v.n.n.n.v.v.v.v.n.v.v.v.n.n.n.n.m.n.d.r.[ J . .     . . 2X4X X[.!.W.. . . O [.XXXXOXOX.X. . . . Y.!.[. X7X2X. .     ",
"        . X R R f y . . v N ( Q < = = * * * * * * , v ! N v . . y f R R . . 2.i.x.m.n.n.n.v.n.n.v.n.v.n.n.n.n.n.v.h.q.5.Z V . .     3 3 -X,X(./.R.P., , 1 1 /.|.^.T./.T.1 1 , , P.R./.].=X@X3 3     ",
"            . . . . . . l ! r.a.u.i.` J L L L L L L G K N v . . . . . . . o C L c.m.n.v.n.n.v.n.n.n.v.n.n.n.n.v.r.4.L C . .     . + 4X5XXX[.W.K.' @.[ [ Z.qXW.I.. . O O G.J.O.' o._ U.W.|.XX5X4X+ . ",
"            . . . . # > l ! q.y.d.t.I L I I I I U U K J N l > # . . . . . X H ] x.m.n.n.n.n.v.n.n.n.v.n.n.n.n.v.t.e.] H . .     . + '.@X^.^.R.R.{ O.} } Z.C.R.L.$ $ > , C.Z.} } O.{ R.R.Q.^.@X'.+ . ",
"                . X 9 u l M r.a.m.m.e.q.e.r.e.e.t.y.U H M c u 9 X .     . o 8.d.b.n.m.m.n.v.n.n.v.n.v.n.v.n.n.n.m.m.u.8.& .     . . . . . X tX0X{ { F.F._ _ _ _ { [ _ _ ` _ F.F._ { 0XtX+ . . . . . ",
"                . X q i z ~ 4.e.v.n.t.r.t.e.e.e.r.q.K F ~ n i 0 X .     . o 9.s.b.b.k.k.v.n.n.v.n.v.n.n.v.n.b.b.c.k.s.9.o .     . . . . . X 9XrX{ ' C.C.{ { [ } [ } } } _ { F.C.' { uX9XX . . . . . ",
"                . X n ! +.+.e e r.f.m.m.t.r.u.e.;.K 0 q +.+.! m X .     . . k.M.iXiXO . k.m.n.n.n.n.n.v.v.b.iXpXO . n.n.. .             . @ tXuX[ | O.O.C.F.eXwX_ _ wXeXF.C.O.O.^ O.uXtX@ .         ",
"                . X f M o. .q 0 1.q.x.c.9.q.e.8.H S q q  .X.b f X .     o * l.M.aXsXO . k.m.n.n.v.n.n.n.v.b.aXsXO . m.m.* o             . @ 8X0XT Y Y { C.C.wXqX{ } qXwXF.C.Y Y Y T 0X8X@ .         ",
"                    . . 9 w 0 0 q 0 ] ] ] ] ] I 0 0 0 q w 9 . .     . X S ] m.m.. . C L c.m.n.n.m.m.n.n.m.k.. . C L m.m.] C X .             . . (.|.I.U.} @.} 7.G.G.7.[ @.} U.I.|.(.. .             ",
"                    # $ e u w w q q C Z Z Z Z C w q w w u e $ #     . X J 1.x.h.& & U 1.x.m.n.c.p.p.n.n.m.k.& & L 1.j.g.1.J o .             ; 2 [.XX!.I.H P F F H.H.F F F Y Y.Q.XX[.2 ;             ",
"                . X s x @.@.c a ! N X . . . . X N ! a c @.+.x s X . . o y.d.l z m.m.n.n.n.n.m.k.. . k.m.n.n.m.m.m.m.z z d.y.o .         . + /.XX:X2XOX[.; . . . . X . . . O [.OX;X;X.X/.+ .         ",
"                . # %.%.E E %.%.j g . . . . . . g j %.%.E E %.%.# . . o 9.i.l z j.N.n.m.n.n.m.c.= = c.m.n.v.m.m.b.j.n l i.9.. .         . + {.+X<X:X/.T.O . . . . . . . . O T./.:X2XOX{.+ .         ",
"                . @ iXiX. . iXiX+ .             . + iXiX. . iXiX@ . . X U [ c x -.S.x.m.v.n.n.m.m.m.m.n.v.v.M.v.S.-.x z ' U X .         . + 1X7X5X1X. .                     . . 1X5X7X1X+ .         ",
"                . @ yXyX. . yXyX+ .             . + yXyX. . yXyX@ . . X A Z j Q =.*.x.m.n.n.x.h.h.h.h.x.n.n.m.x.*.=.M Q Z A . .         . + ~.`.`.~.. .                     . O ~.`.`.~.+ .         ",
"                    . .     . .                     . .     . .         . . ;.1.a x x.m.n.v.q.4.C S 4.r.v.n.m.x.x a [ U . .                 . . . . . .                     . . . . . .             ",
"                    . .     . .                     . .     . .         . . 7 Z h Q x.m.n.n.a.t.6.6.e.a.v.n.m.c.Q j Z 7 X .                 . . . . . .                     . . . . . .             ",
"                                                                            . . V L n.m.n.n.m.m.m.m.m.m.n.v.m.n.L V . .                                                                             ",
"                                                                            < 4 6.3.h.x.n.n.z.h.z.h.z.h.n.n.z.h.3.;.4 <                                                                             ",
"                                                                        . . i.g.m.m.4.4.n.n.w.4.q.q.4.w.n.n.4.w.m.m.g.r.. .                                                                         ",
"                                                                        , < e.s.x.z.t.t.n.n.a.y.r.q.y.t.n.n.t.t.c.x.s.e.< ,                                                                         ",
"                                                                    . X D ] n.m.r.r.n.m.n.n.n.n.w.w.n.m.n.n.m.n.r.r.m.n.] D X .                                                                     ",
"                                                                    . X H 1.n.m.8.8.v.m.v.n.n.n.r.t.n.n.n.v.n.v.8.4.m.n.1.H X .                                                                     ",
"                                                                    . o 3.u.m.m.D S c.m.v.n.n.n.n.n.n.n.n.n.m.c.S D m.m.u.3.o .                                                                     ",
"                                                                    . o 0.s.f.f.I U v.m.n.n.c.n.n.n.v.n.n.v.m.c.U U f.h.g.e.o .                                                                     ",
"                                                                    . o m.m.D C n.m.n.v.n.n.n.n.n.n.n.n.n.n.v.n.m.v.S D m.m.o .                                                                     ",
"                                                                    . o 0.p.U I v.m.n.v.n.n.n.n.n.n.n.n.v.v.v.n.m.n.I K p.0.o .                                                                     ",
"                                                                        . . e.g.n.m.n.n.n.m.m.m.m.m.m.m.m.m.n.v.m.n.h.e.. . . .                                                                     ",
"                                                                        . . 2.i.h.x.v.n.z.h.a.a.f.a.a.a.h.z.n.n.x.h.r.2.. . . .                                                                     ",
"                                                                        . . t F w.d.m.m.g.u.] R ` ` L _ u.g.m.m.d.q.F t . .                                                                         ",
"                                                                        6 6 6.3.4.5.<.<.>.G A 7 7 7 7 V G >.<.<.3.4.2.6.6 6                                                                         ",
"                                                                    . & m.m.m.m.7.F . . . . . . . . . . . . . . F 7.m.m.m.m.& .                                                                     ",
"                                                                    . o :.,.,.:.A 5 . . . . . . . . . . . . . . 5 A :.,.,.:.o .                                                                     ",
"                                                                        . . . . . .                             . . . . . .                                                                         ",
"                                                                        . . . . . .                             . . . . . .                                                                         "
};
