/* XPM */
static char *_c61c201fef64820e7020446609b433bai6pdVVPOzjNav0i[] = {
/* columns rows colors chars-per-pixel */
"94 61 237 2 ",
"   c None",
".  c #000000",
"X  c #0B0400",
"o  c #0C0A00",
"O  c #01050B",
"+  c #020A0D",
"@  c #090A0B",
"#  c #120300",
"$  c #130C01",
"%  c #1C0901",
"&  c #111100",
"*  c #1B1A00",
"=  c #1C1401",
"-  c #000D19",
";  c #051419",
":  c #240B00",
">  c #2B0600",
",  c #211500",
"<  c #291901",
"1  c #301501",
"2  c #242200",
"3  c #372A00",
"4  c #322911",
"5  c #011928",
"6  c #09262F",
"7  c #292A20",
"8  c #4B3900",
"9  c #6D3D00",
"0  c #7B4700",
"q  c #032C40",
"w  c #990000",
"e  c #91090B",
"r  c #A90000",
"t  c #B30001",
"y  c #BB0703",
"u  c #BB1317",
"i  c #A4141F",
"p  c #BB2600",
"a  c #B41E27",
"s  c #B83132",
"d  c #C50100",
"f  c #CB0000",
"g  c #D50500",
"h  c #DF1A00",
"j  c #EF1600",
"k  c #C22A00",
"l  c #C72800",
"z  c #D62800",
"x  c #DC3200",
"c  c #CB3000",
"v  c #EB2800",
"b  c #FF2500",
"n  c #F22C00",
"m  c #FD2B00",
"M  c #F02700",
"N  c #E53300",
"B  c #EE3300",
"V  c #ED3A01",
"C  c #E53800",
"Z  c #F33400",
"A  c #FC3400",
"S  c #FE3B00",
"D  c #F23B04",
"F  c #F23011",
"G  c #D53432",
"H  c #854A00",
"J  c #994900",
"K  c #975500",
"L  c #845100",
"P  c #A34B00",
"I  c #AC5C00",
"U  c #A65801",
"Y  c #B15A00",
"T  c #947400",
"R  c #AE6300",
"E  c #A76400",
"W  c #B26500",
"Q  c #B96401",
"!  c #BD6B00",
"~  c #B46C02",
"^  c #A47D00",
"/  c #BC7400",
"(  c #B67600",
")  c #B86B17",
"_  c #B47424",
"`  c #A2702F",
"'  c #CE421F",
"]  c #DF4E02",
"[  c #FF4200",
"{  c #F34200",
"}  c #E45C03",
"|  c #FC5D01",
" . c #F45903",
".. c #F24A13",
"X. c #C46C00",
"o. c #C86900",
"O. c #D36C01",
"+. c #DA6900",
"@. c #C87703",
"#. c #D57303",
"$. c #DB7903",
"%. c #D57B16",
"&. c #C67114",
"*. c #E66606",
"=. c #F26303",
"-. c #FE6403",
";. c #FF6903",
":. c #F86705",
">. c #E37806",
",. c #FF7203",
"<. c #FA7507",
"1. c #FF6F11",
"2. c #CF4523",
"3. c #F25B31",
"4. c #FE742B",
"5. c #FE7957",
"6. c #F5734E",
"7. c #FE7567",
"8. c #B18500",
"9. c #BDB500",
"0. c #C88300",
"q. c #D58601",
"w. c #CC9700",
"e. c #DC9C00",
"r. c #D39501",
"t. c #EE8B0C",
"y. c #D8A700",
"u. c #DFB100",
"i. c #E4AB00",
"p. c #E4A800",
"a. c #E5B300",
"s. c #E9B400",
"d. c #EABB00",
"f. c #E0BA00",
"g. c #F6BB00",
"h. c #F3AE00",
"j. c #D8CF01",
"k. c #EEC200",
"l. c #E8CD00",
"z. c #F1C100",
"x. c #FDC300",
"c. c #FDCB00",
"v. c #F2CB00",
"b. c #EAD600",
"n. c #FED200",
"m. c #F2DD00",
"M. c #FADB03",
"N. c #EEE400",
"B. c #F5E200",
"V. c #FBE501",
"C. c #F6E900",
"Z. c #FAED00",
"A. c #FBED0C",
"S. c #FCF200",
"D. c #FEFD00",
"F. c #FBF809",
"G. c #FBF31F",
"H. c #FBF126",
"J. c #C5904F",
"K. c #FF8856",
"L. c #F78F50",
"P. c #E9A95A",
"I. c #F7AB4F",
"U. c #FE8667",
"Y. c #EF966F",
"T. c #F2B567",
"R. c #FDC473",
"E. c #FFC35E",
"W. c #004A9B",
"Q. c #125394",
"!. c #2F5391",
"~. c #0255A7",
"^. c #005BB6",
"/. c #004CAF",
"(. c #0466B9",
"). c #007AB7",
"_. c #0B6AB2",
"`. c #286BA5",
"'. c #4C619F",
"]. c #0057C3",
"[. c #0064C7",
"{. c #0376D4",
"}. c #0673C6",
"|. c #0074E7",
" X c #0681BE",
".X c #2693B6",
"XX c #0285CA",
"oX c #1F88C1",
"OX c #0286D4",
"+X c #0494DA",
"@X c #129BD6",
"#X c #25A7CB",
"$X c #0195E1",
"%X c #039CE8",
"&X c #0096F3",
"*X c #03A3ED",
"=X c #01A2F3",
"-X c #00A2FA",
";X c #02ABFD",
":X c #05B5FF",
">X c #30BEEC",
",X c #4EB5D8",
"<X c #12D0FF",
"1X c #35C1EE",
"2X c #29C7FA",
"3X c #32C3F3",
"4X c #30C7F9",
"5X c #34CAFA",
"6X c #39CCFD",
"7X c #2BD4FF",
"8X c #25DBFF",
"9X c #35D4FF",
"0X c #3AD2FE",
"qX c #39DCFF",
"wX c #36D9FF",
"eX c #26C0E6",
"rX c #3CEEFF",
"tX c #43D1FF",
"yX c #43FBFF",
"uX c #A0AFBB",
"iX c #949FA8",
"pX c #CDB6AA",
"aX c #FCDD91",
"sX c #FDDA8C",
"dX c #FFE99F",
"fX c #FFEFA6",
"gX c #94ABD0",
"hX c #89B6D2",
"jX c #B4BDC6",
"kX c #B6C5C9",
"lX c #C5CACB",
"zX c #D1EFFD",
"xX c #ECF9FB",
"cX c #FEFEFE",
"vX c #F8F8FB",
"bX c #F5EFED",
"nX c #D7D9F4",
/* pixels */
"Z Z                                                                                                                                                                                         ",
"Z B                                                                                                                                                                                         ",
"V Z                                                                                                                                                                                         ",
"Z Z     Z Z                                                                                                                                                                                 ",
"Z Z     Z Z                                                                                                                                                                                 ",
"Z V B n Z B                 . . . . . . . . . .                                                                                                                                             ",
"Z Z Z n Z Z                 . . . . . . . . . .                                                                                                                                             ",
"B D 5.5.B B Z B         . . l C } *.} } *.} N l . .                                                                                                                                         ",
"Z D U.K.D M Z Z         . # A [ ;.<.,.,.,.,.[ A # .                                                                                                                                         ",
"M V Z.A.5.5.Z m     . X z B -.;.;.;.;.;.;.-.;.| Z z X .                                                                                         . . . . . . . . . . . . . .                 ",
"M { D.D.L.U.Z S     . X Z [ ;.;.;.;.;.;.;.-.,.;.[ Z X .                                                                                         O O + + + + + + + + + O O O                 ",
"| ;.V.D.S.A.K.U.    . . =.,.;.;.-.;.;.;.;.;.;.;.;.=.. .                                                                                     . . W.^.OX+X3X3X3X3X4X3X+XOX^.W.. .             ",
"-.1.V.D.D.S.L.U.    # : =.,.;.;.-.;.;.-.-.;.;.;.,.=.: #                                                                                     + - (.{.*X;X9XqX9X9XqX9X:X%X{.(.- O             ",
"5.K.S.D.D.V.,. .. . h b ;.,.;.;.;.;.;.;.;.;.;.;.-.| S A # .                                                         . . . .             . O W.].4X9X5X5X5X3X5X5X5X5X5X5X0X3X[.W.O .         ",
"7.K.M.A.G.G.<. .. . ..3.} } ;.;.;.;.;.;.;.;.-.;.t.4.V z X .                                                         * 2 2 *             . O _.OX5X0X6X5X5X5X5X5X4X4X5X5X9X5XOX(.O .         ",
"    K.U.cXcXY.5.. O cXcXO . =.,.-.;.;.;.-.;.| 1.cXcX@ . . .                                                     . . D.D.D.D.o .         . . 1XqX6X5X5X5X5X4X5X5X5X5X5X5X6X6XqX1X. .         ",
"    6.6.vXvXL.6.. O xXxXO . =.,.;.;.;.-.-.;.| 1.xXzX@ . . .                                                     & * N.D.D.b.o .         + ; 3XqX4X4X5X5X4X5X5X4X5X4X5X5X4X4XqX3X; O         ",
"    X $ 1.1.X . . . X . . X =.,.;.;.;.;.;.-.,.=.$ @ . . . . . .                                             . o D.D.& . . o . .     . + XX=X9X7X$X+X4X6X5X5X5X5X5X5X0X4X$X+X7X7X=XXX+ .     ",
"    . . -.-.. . . . . . . # =.;.;.;.;.;.;.;.,.=.. . . O . . . .                                             . o D.D.. . . . . .     . + $X:X5X3X$X$X4X9X5X5X5X5X5X5X6X4X$X$X4X4X:X$X+ .     ",
"    . X Z S X . . O !.!.O . =.,.;.;.;.-.;.;.;.=.. O !.!.O . . . . . . .                                     . . o & U U . . . .     . @ 2X5Xi i vXxX%X$X4X5X5X5X5X4X$X*XxXvXu i 5X2X@ .     ",
"    . X A A X . . O '.'.X X =.,.;.-.;.;.;.;.;.=.X X '.'.O . . . . . X .                                     . . . . @.@.& X . .     . + 7XtXt f bXcX+X$X4X6X4X5X6X4X+X$XcXbXg t tX7X+ .     ",
"    . # Z A X . . X *.<.=.=.;.;.;.;.;.-.;.;.;.;.=.=.<.*.X . . . . . I U . . . .                         . . . . w.s.Z.V.d.y.o .     . + 7XtXt r @ ; >X9X5X5X5X5X5X5X9X>X5 + t t tX7X+ .     ",
"    . X Z A X . . X -.,.;.,.;.;.;.;.;.;.;.;.;.;.,.,.;.-.# . . . o % @.0.= & o $                         X o $ = s.n.D.D.c.i.o .     . @ 2X6Xu y . . 3XrX5X5X5X5X5X5XqX3X. . u d 6X2X+ .     ",
"    . X S S . . . X A [ ;.;.;.;.-.;.;.;.-.-.;.;.,.;.[ A . . . X I @.C.D.Z.C.g.w.. . . . . . . . . . . . K ! e.a.Z.S.D.Z.q.W X .     . + -X:X5.4.f r 1X7X6X5X5X4X6X0X7X1Xr d 4.K.:X-X+ .     ",
"    . X x N : % . X l N | ;.;.;.;.;.;.;.;.;.-.;.;.| N l : % . o K / S.D.D.D.M.a.< & * = * * * * * * * , ~ $.d.c.S.S.S.B.R J . .     . + XX+XY.Y.l i >X8X4X4X5X5X3X4X8X1Xi l U.Y.+XXXO .     ",
"        . X S S . . . . A S ;.<.;.,.;.;.,.;.<.,.[ A . . ,.,.. . . $ S.D.Z.Z.S.Z.i.i.Z.D.S.S.S.S.S.S.D.Z.u.i.Z.S.S.S.c.i.o .             . . 7XrX5X6X8X8X-X-X8X<X-X-X<X8X0X0XrX7X+ .         ",
"        . . x N > : % , k x  . .| -.-.-.-.|  . .x p X # ;.;.1 : . . l.Z.S.S.D.S.k.z.D.D.D.D.D.D.D.D.D.D.d.d.S.D.D.V.d.r.. .             ; ; #X>X2X2X,X,X.X}.,X,X.XoX,X,X7X2X>X@X. .         ",
"        . . . . v S ,.;.. . t g A S S S S A g r . . r f A [ ,.;.. . W $.D.D.S.Z.S.S.S.Z.Z.S.Z.Z.S.Z.Z.S.S.S.Z.S.D.D.q.Y o .         . . =X=X. . -X:XS b b m b b b b b A :X;X. . . .         ",
"        . . , 1 D [ ;.;.: % e w l c l l c k r e : : y g k c ;.-.. . H U l.B.Z.S.S.S.S.Z.Z.S.S.Z.S.S.Z.S.S.S.S.Z.B.l.U H X .         6 6 =X*X- + }.XXc z ' 2.' ' 2.2.z l XX).- - 6 6         ",
"        . # ,.<.<.,.S A S m . . . . . . . . . . Z S S N . . S S # . . . J W C.D.S.Z.Z.S.S.Z.S.S.Z.S.S.Z.S.S.D.C.Q J . .         . + 0XrX*X$X|.[.. . . . %X:X:X:X<X-X. O . . /.{.qX9X. .     ",
"        . X | ;.;. .p p { ] 3 3 , = = , = , , < N S S N . . k k X . . . E q.C.D.S.S.S.Z.S.Z.Z.S.S.S.S.Z.S.Z.D.V.0.R X .         . + >X7X$XOX`.!.1 1 4 7 OX&X).).}.).4 4 - 5 (.{.wX5Xq 5     ",
"        . X A S S A . . K / g.g.X.Q ! ! ! ! / X.Z A A N . . . . . . . o y.x.V.S.D.D.S.S.Z.S.S.S.Z.Z.S.S.S.S.D.D.x.y.o .         . O -X;X].W.#.<.$.%.E.T.{./.. . . . T.R.}.[.$X%X0X9X:X*X+ . ",
"        . X p x x k & & R 0.z.d./ ! ( @.@./ ~ Q V n [ C > # . . . . . o u.n.H.H.j.j.V.S.S.S.Z.S.S.S.Z.S.H.H.j.j.x.u.o .         . O ).OX}.`.&.>.#.%.I.P.`.!.= % = < I.P.~.[.%X*X4X4X=XXXO . ",
"            . . . . E @.s.z.D.D.a.i.s.s.k.s.^ ~ N A ,.;.f r X .     . . N.F.cXcXO . N.D.S.Z.S.S.Z.S.S.A.cXcXO . D.F.. .             . X uXjX&.O.T.T.o.o.#.#.O.O.O.O.+.) ^.[.tXtX-X&X{.^.O . ",
"            . . . . Y #.p.a.Z.S.d.d.s.s.a.i.R I Z S ,.;.g r X .     X = N.F.xXnXO . N.D.S.S.Z.S.S.Z.S.A.bXnXO . S.D.= o             . X uXjX%.O.P.P.&.%.O.#.%.%.%.%.>.&.Q.(.3X5X@XXX(.W.O . ",
"                . o C [ ~ ( i.k.D.D.d.s.8.R r t :.;.;.-.[ A X . . X K X.D.D.. . J ! V.D.Z.S.D.D.S.Z.D.N.. . J ! D.D./ J X .         . @ kXlX>.*.+.>.fXfXo.O.aXfXfXfXT.P.<.+.^.^.%.O.X .     ",
"                . X v A Y I e.i.C.C.a.y.R P t d :.,.;.;.C c X . . X W q.V.m.& & ~ q.Z.D.S.Z.b.j.Z.F.D.N.& & ( q.M.m.q.R o .         . @ iXiX_ ) ) ) sXaX%.&.sXfXsXsXP.P.%._ _._.>.+.# .     ",
"                . X r y d d Y R X.X.@.o.d d A [ ;.,.,.=.. .     . o f.x.M Z D.D.S.S.S.S.D.N.. . N.D.S.S.S.S.D.D.Z n x.f.o .             . O ~.(.].~.O.<.T.E.E.T.>.>.:.#.+X&XjXpXt.+.@ .     ",
"                . X a a w w _ _ K K K K w w l x | -.;.=.% #     . o y.s.M n n.Z.S.D.Z.S.D.N.* * N.D.S.S.D.D.V.c.n M h.y.o .             . . (.{.[.(.` ) J.J.J.J.R U _ ` *X-XgXuX) U X .     ",
"                . + zXzX. . zXzX+ . . . . . . . h b Z B d r X . . X ~ #.A m j n C.D.Z.Z.D.D.D.D.D.S.S.Z.D.V.n j b Z $.~ X .             . + *X:X:X;X|.].X . O . . + -X:X6X5X-X{.O .         ",
"                . @ gXgX. . gXgXO . . . . . . . 3.3.Z n G s X . . X L K ] B F ..V.D.Z.Z.B.B.M.M.B.C.Z.S.D.V...n V ] K L X .             . + ).XX).).~.W.. . . . . O ).OX5X6X;X@XO .         ",
"                    . .     . .             O @ cXcXA S cXcX@ .     . . ( q.7.U.A.D.S.Z.s.e.P J e.i.Z.D.D.Z.7.7.W J . . . .                 . . . . . .             . . wXyXyXqX+ .         ",
"                    . .     . .             . @ kXlXp p lXkX@ .     . . H K L.L.C.D.S.S.k.d.8.0.s.k.Z.S.S.Z.I.L.r.8.3 3 < <                 . . . . . .             . O .X#X#X.X+ .         ",
"                                                . . . . . .             . . w.z.S.D.S.S.D.D.D.D.D.D.S.Z.S.S.D.D.D.D.x.h.#.I X .                                     . . . . . .             ",
"                                                . . . . . .             3 8 f.c.m.C.S.S.B.m.m.B.B.m.Z.S.S.S.V.m.l.l.v.z.q.~ o .                                     . . . . . .             ",
"                                                                    . o x.V.D.D.s.s.S.S.p.e.i.p.e.p.Z.S.S.Z.i.e.J U D.D.V.x.o .                                                             ",
"                                                                    . o r.d.S.S.e.e.Z.S.k.d.i.a.d.k.S.S.S.S.k.s.! / b.b.w.8.o .                                                             ",
"                                                                    . . J ! D.D.I I C.D.D.Z.i.p.Z.D.S.D.D.D.D.D.d.p.X.K . .                                                                 ",
"                                                                    $ , E @.B.B.I R B.D.S.Z.d.d.S.S.Z.C.B.m.N.m.k.a.X.U . .                                                                 ",
"                                                                . X U ! s.a.U P P R C.D.S.Z.S.S.S.Z.z.i.I P P R D.D.! K o .                                                                 ",
"                                                                . X ~ q.k.k./ / ( 0.Z.D.S.S.S.S.S.Z.i.e./ / W / B.m.0.R X .                                                                 ",
"                                                                . o a.n.D.D.D.D.D.D.Z.S.Z.S.Z.S.D.S.I I D.D.s.p.I I x.u.o .                                                                 ",
"                                                                . o w.s.B.V.S.S.S.S.S.S.S.S.S.S.S.b.W R S.D.v.s.W R g.u.o .                                                                 ",
"                                                                . X Q $.g.n.D.D.D.D.D.D.D.D.D.D.d.s.o.@.S.D.D.S.@.X.n.c.o .                                                                 ",
"                                                                . X 0 K ^ 8.9.9.l.l.m.B.l.l.l.l.p.r.H L m.V.Z.m.L H 8.8.X .                                                                 ",
"                                                                    . . . . . . J X.c.x.o.o.o.o.$.! . . u.x.g.y.. . . .                                                                     ",
"                                                                    . . . . 3 8 R ~ ^ ^ 0 0 0 0 L 0 . . 0.h.g.y.o . . .                                                                     ",
"                                                                        . $ V.S.t.! . . . . . . . . . # Q q.M.c.o .                                                                         ",
"                                                                        . X T 8.L 9 . . . . . . . . . . 9 L ^ T X .                                                                         ",
"                                                                            . . . .                     . . . .                                                                             ",
"                                                                            . . . .                     . . . .                                                                             "
};
