/* XPM */
static char *_fd168028c5a4d1ff3771a04f07d98cf7ZCAe1iw3yRza2J4[] = {
/* columns rows colors chars-per-pixel */
"30 30 113 2 ",
"   c None",
".  c black",
"X  c #000103",
"o  c gray2",
"O  c #00000A",
"+  c #00002B",
"@  c #05162D",
"#  c #00003B",
"$  c gray13",
"%  c #272727",
"&  c gray20",
"*  c gray21",
"=  c #393939",
"-  c #3A3A3A",
";  c #3C3C3C",
":  c #4C0A20",
">  c #4F0B22",
",  c #571329",
"<  c #58152A",
"1  c #5A152B",
"2  c #5A162E",
"3  c #000047",
"4  c #000056",
"5  c #0C284A",
"6  c #082058",
"7  c #010670",
"8  c #5E1764",
"9  c gray26",
"0  c #41414A",
"q  c gray30",
"w  c #535353",
"e  c #606060",
"r  c gray40",
"t  c DimGray",
"y  c #6A6A6A",
"u  c gray45",
"i  c gray46",
"p  c #797979",
"a  c #80194F",
"s  c #A4224E",
"d  c #AC2853",
"f  c #B82858",
"g  c #A12660",
"h  c #BE3762",
"j  c #CC3A69",
"k  c #D13B6B",
"l  c #D23C6C",
"z  c #D73F6F",
"x  c #C93976",
"c  c #D74172",
"v  c #D84070",
"b  c #E04976",
"n  c #E24B78",
"m  c #020A91",
"M  c #133681",
"N  c #0001B7",
"B  c #451486",
"V  c #20518C",
"C  c #2B568F",
"Z  c #215391",
"A  c #215491",
"S  c #245A9B",
"D  c #2154A1",
"F  c #2B68B6",
"G  c #4F77B7",
"H  c #0418C3",
"J  c #092DC6",
"K  c #1146CD",
"L  c #3072C3",
"P  c #3174C5",
"I  c #3174C6",
"U  c #3379CE",
"Y  c #347BD3",
"T  c #941E87",
"R  c #BE3787",
"E  c #AA3299",
"W  c #AC6CB6",
"Q  c #AC77BE",
"!  c #EC5781",
"~  c #F15C84",
"^  c #3680D9",
"/  c #3883DE",
"(  c #2D93F3",
")  c #32A4FF",
"_  c #33A4FF",
"`  c #808080",
"'  c #838383",
"]  c gray52",
"[  c #868686",
"{  c #898989",
"}  c gray55",
"|  c #8E8E8E",
" . c #909090",
".. c #989898",
"X. c gray63",
"o. c #A5AAB6",
"O. c #B4B4B4",
"+. c #B6B6B6",
"@. c #B7B7B7",
"#. c #BCBCBC",
"$. c #85BBFD",
"%. c #91C0FD",
"&. c gray81",
"*. c #D0D0D0",
"=. c gray82",
"-. c #DADADA",
";. c #CADDFB",
":. c #DEE8FA",
">. c gray88",
",. c #E7E7E7",
"<. c #ECECEC",
"1. c gray94",
"2. c #F8F8F8",
/* pixels */
"                                                            ",
"                                                            ",
"                                                            ",
"                                                            ",
"                                                            ",
"                                                            ",
"                        . . . . .                           ",
"                    . O m m m m m 7 . .                     ",
"                  < < 2 K K K K H B , :                     ",
"                . h v c _ _ _ _ J E l f : .                 ",
"                s j n ~ :.%._ _ ( W z k d s                 ",
"                T x b ! ;.$._ _ _ Q v v g a                 ",
"              # N R v c _ _ _ _ _ Q v v 8 3 .               ",
"              5 / / / / / V . . ^ / / / M 3 .               ",
"              @ A U / / A o.O.u C L Y D 6 + .               ",
"              % ` G I I . #.=. .$ S F 4 0 & .               ",
"              w 2.[ . . . i  . .$ . . . [ y .               ",
"                y =.,.,.,...= = [ [ [ [ q *                 ",
"                . O.>.2.2.&.X.r |  . . .; .                 ",
"                . p @.<.1.1.-. . .} { { ;                   ",
"                  . . o  . . . . .e . .                     ",
"                        q q q q q 9                         ",
"                        . . . . .                           ",
"                                                            ",
"                                                            ",
"                                                            ",
"                                                            ",
"                                                            ",
"                                                            ",
"                                                            "
};
