/* XPM */
static char *afba585c047e4402c770c2389dde40ebLtyMotXaGbNQA0US[] = {
/* columns rows colors chars-per-pixel */
"30 30 231 2 ",
"   c None",
".  c #5E442E",
"X  c #454137",
"o  c #464137",
"O  c #4A4131",
"+  c #484038",
"@  c #494139",
"#  c #4A4038",
"$  c #4B4138",
"%  c #4A4139",
"&  c #4D4239",
"*  c #4E4339",
"=  c #4B453D",
"-  c #4C453D",
";  c #4C463F",
":  c #4C473F",
">  c #564233",
",  c #50443A",
"<  c #52453A",
"1  c #53453A",
"2  c #52453B",
"3  c #53453B",
"4  c #544539",
"5  c #54453A",
"6  c #55463A",
"7  c #56473B",
"8  c #58483C",
"9  c #5A493C",
"0  c #5B493D",
"q  c #5A4A3E",
"w  c #5D4A3D",
"e  c #5F4B3E",
"r  c #60462F",
"t  c #604B3E",
"y  c #604C3E",
"u  c #614C3E",
"i  c #624D3E",
"p  c #634D3F",
"a  c #634E3F",
"s  c #644E3F",
"d  c #664F3F",
"f  c #6D523F",
"g  c #6F533F",
"h  c #4B4940",
"j  c #4B4B41",
"k  c #4F4B43",
"l  c #4D4D44",
"z  c #514D45",
"x  c #534D45",
"c  c #514E46",
"v  c #514F47",
"b  c #5A4B40",
"n  c #5C4F4D",
"m  c #505147",
"M  c #535149",
"N  c #54534B",
"B  c #55544C",
"V  c #55554C",
"C  c #56554D",
"Z  c #56564E",
"A  c #57574E",
"S  c #57574F",
"D  c #585850",
"F  c #585951",
"G  c #5E5E57",
"H  c #664F40",
"J  c #674F40",
"K  c #675040",
"L  c #685040",
"P  c #695040",
"I  c #695140",
"U  c #6A5140",
"Y  c #6C5240",
"T  c #6D5240",
"R  c #6D5340",
"E  c #6E5340",
"W  c #6F5340",
"Q  c #6F5440",
"!  c #705440",
"~  c #715440",
"^  c #715540",
"/  c #725540",
"(  c #735540",
")  c #735640",
"_  c #725742",
"`  c #745640",
"'  c #755640",
"]  c #755740",
"[  c #765740",
"{  c #775740",
"}  c #775840",
"|  c #765B46",
" . c #775C45",
".. c #785840",
"X. c #795A42",
"o. c #7A5B43",
"O. c #795C44",
"+. c #785C45",
"@. c #795D45",
"#. c #7A5C44",
"$. c #7A5D45",
"%. c #7B5D45",
"&. c #7B5F47",
"*. c #7A5F4B",
"=. c #7C5F48",
"-. c #7E5F49",
";. c #7A6249",
":. c #7A614B",
">. c #7C6048",
",. c #7D634B",
"<. c #7B604D",
"1. c #7B634C",
"2. c #7C634C",
"3. c #7D644C",
"4. c #7F654D",
"5. c #7F664E",
"6. c #7E664F",
"7. c #7F674F",
"8. c #7E6750",
"9. c #7F6750",
"0. c #7F6850",
"q. c #6A6561",
"w. c #6B6964",
"e. c #6C6C66",
"r. c #767077",
"t. c #797975",
"y. c #7C7C78",
"u. c #82644D",
"i. c #80674F",
"p. c #85654E",
"a. c #9A724D",
"s. c #806850",
"d. c #816850",
"f. c #806950",
"g. c #806951",
"h. c #816951",
"j. c #836951",
"k. c #826A52",
"l. c #836A52",
"z. c #846B53",
"x. c #856B53",
"c. c #866A53",
"v. c #866C53",
"b. c #876C53",
"n. c #866A54",
"m. c #876C54",
"M. c #876D55",
"N. c #886850",
"B. c #896952",
"V. c #8A6A53",
"C. c #8A6D53",
"Z. c #8B6B54",
"A. c #896D54",
"S. c #896E56",
"D. c #8B6F56",
"F. c #8C6C55",
"G. c #8D6D56",
"H. c #8C6E58",
"J. c #8B7058",
"K. c #8D7058",
"L. c #8D7059",
"P. c #8D7159",
"I. c #8E7159",
"U. c #8F725A",
"Y. c #917053",
"T. c #937358",
"R. c #927359",
"E. c #90725A",
"W. c #90735B",
"Q. c #93735B",
"!. c #91745C",
"~. c #92745C",
"^. c #93745C",
"/. c #93755D",
"(. c #94755D",
"). c #94765E",
"_. c #95765E",
"`. c #96765E",
"'. c #97775E",
"]. c #96765F",
"[. c #9B795F",
"{. c #AA7C56",
"}. c #AB7E57",
"|. c #A07959",
" X c #A97E59",
".X c #877162",
"XX c #977760",
"oX c #987860",
"OX c #997860",
"+X c #997960",
"@X c #997961",
"#X c #9A7960",
"$X c #9B7960",
"%X c #9B7A60",
"&X c #9A7A61",
"*X c #9C7A60",
"=X c #9E7B60",
"-X c #84737D",
";X c #A77F60",
":X c #AB805C",
">X c #AC815E",
",X c #B0835E",
"<X c #B3855F",
"1X c #8E837B",
"2X c #AC8260",
"3X c #AD8260",
"4X c #AE8360",
"5X c #AF8460",
"6X c #B08460",
"7X c #B38560",
"8X c #B48660",
"9X c #B58660",
"0X c #B88860",
"qX c #797581",
"wX c #867680",
"eX c #848480",
"rX c #8E8E8A",
"tX c #9E8D83",
"yX c #9B908B",
"uX c #9B918B",
"iX c #9E948E",
"pX c #898497",
"aX c #908292",
"sX c #96899C",
"dX c #9D8C9D",
"fX c #A19799",
"gX c #B0A7A1",
"hX c #BBB6B4",
"jX c #B9B8B7",
"kX c #D7D6D6",
"lX c #DCDCDB",
/* pixels */
"                                                            ",
"                                                            ",
"                                                            ",
"                          iXuXuXuXwX-X                      ",
"                      gX.X,X|.L.XX^.XX                      ",
"                    dX X6XoXoX).^.^.XXXX                    ",
"                  sXa.6XoXoX).z.d.z.oXoXoX                  ",
"                aX;.T.*XoX).z.i.d.d.L.oXL.).                ",
"              fX>.Q.d.^.oXoX'.D.d.d.m.2X6XD.                ",
"              tX>X^.9.C.<X6X*XoXOX).d.L.3Xz.H.              ",
"            hX XoXQ.9.:X0X0X3XXXOXOXE.V.G.d.d.z.            ",
"            1XY.K.z.$. X0X0X9X3X*X'.[.V.$.0.D.oX1.          ",
"            r ..7.7.p.[.9X6X;XE.m.z.z.d.U.Q.7.F.*.n         ",
"          kX. ..7.;.g G.'.'.L.7.0.d.2.V.oX).>...F.b         ",
"          jX> ] g %.| | 7.d.0.d.d.0.>.u.Q.9.....Y H r.      ",
"          O H R } d.0.d.0.0.d.0.9.9.$.~ 2.;.....] L q.lX    ",
"        qX4 L / ..>.d.>.$.d.s.s.s.#./ ~ #.........L # w.    ",
"        C # w ] ........} $.9.s.9.1.L ~ ..........4 # o     ",
"        A & w L } } ....} L L L H L L ~ ....] ~ L L i o     ",
"        A 4 L L / ......} } L Y ~ L i i ~ ~ Y L L L q :     ",
"        A x t L L R R } ..Y Y } ../ g 8 , H L L L L - M     ",
"        D M # i L L L L L Y } ........g H L L L d , N pX    ",
"        eXF x # i L L L L ..........] Y L L L H , : A       ",
"          l F x # i L L i / / / / ~ L L L t H 4 h A         ",
"            j A v # 4 H & q K L L L L L w # , :             ",
"              rXG A k & # # , , , , , , # N A               ",
"                  y.e.A S S S A C D C D D t.                ",
"                                                            ",
"                                                            ",
"                                                            "
};
