/* XPM */
static char *result[] = {
/* columns rows colors chars-per-pixel */
"24 28 11 1 ",
"  c black",
". c #406068",
"X c #803880",
"o c #A868B0",
"O c #9098A0",
"+ c #8098F8",
"@ c #D090D8",
"# c #B0C8F8",
"$ c #D0D8D8",
"% c #F8F8F8",
"& c None",
/* pixels */
"&&&&&&&&&&&  &&&&&&&&&&&",
"&&&&&&&&&& %% &&&&&&&&&&",
"&&&&&&&&&& O$% &  &&&&&&",
"&&&&&&&&&&& O$ & % &&&&&",
"&&&&&&&&&& $%%$  $% &&&&",
"&&&&&&&&&& %%%%$O$% &&&&",
"&&&&&&&&& $%%%%%%OO &&&&",
"&&&&&&&&& $O$%%%%%$ &&&&",
"&&&&&&&&& O%O%%%%%$ &&&&",
"&&&&&&&& O%O$$%%%$$ &&&&",
"&&&&&&&& %O.OO$$$$O &&&&",
"&&&&&&& O%.O.  OOO &&&&&",
"&&&&&&& $O$$O$O   +##+&&",
"&&&&&&& O%%%$O$O #%%%%#&",
"&&&&&&&& %O.%$O$   %%%%+",
"&&&&&&&& $ % %O$ %% %%%#",
"&&  &&&& . $$   $OO% %%#",
"& oo && O$% $O%%$%%O% %+",
" o@X && $%%$ %$  O$O$ #&",
" @o && O$%%%$  O  O$ +&&",
" @ &&& O   $O%%$O   &&&&",
" o &&&  o@oXO%%%$ &&&&&&",
" Xo && o@@@oO$%$O &&&&&&",
"& @o  o@@@oX O$$ &&&&&&&",
"& o@@@@@ooX & OO   &&&&&",
"&& XoooooX && O$%%% &&&&",
"&&&  XXX  && $%%$$O &&&&",
"&&&&&   &&&&&      &&&&&"
};
