/* XPM */
static char *result[] = {
/* columns rows colors chars-per-pixel */
"20 28 9 1 ",
"  c black",
". c #406068",
"X c #803880",
"o c #A868B0",
"O c #9098A0",
"+ c #D090D8",
"@ c #D0D8D8",
"# c #F8F8F8",
"$ c None",
/* pixels */
"$$$$$$$$$   $$$$$$$$",
"$$$$$$$$ ###  $$ $$$",
"$$$$$$$$$ @O@#  # $$",
"$$$$$$$$$$ @###O#@ $",
"$$$$$$$$$$ #####@# $",
"$$$$$$$$$ @####### $",
"$$$$$$$$$ @#######@ ",
"$$$$$$$$$ O@######@ ",
"$$$$$  $$ OOO@####@ ",
"$$$  @# $$ O#O@### $",
"$$ #@OO $$  .#.OO@ $",
"$$ @O###  @#.@#   $$",
"$$$ O@ @O#.@#O#O#@ $",
"$$$$  $  @@.##O##O $",
"$$$$  $$$  .####@ $$",
"$$$ o+ $$ O.@#O@O@ $",
"$$ o+X $ O@O.O@O @ $",
"$ o+o $ @O@@@##  O $",
"$ oo $ @O@@###O $ $$",
" oX $$ O@####O## $$$",
" o $$$    ##O###@ $$",
" o $$ o++o @O##@O $$",
" o+  o+++oo .@@O $$$",
" Xo++++ooXX  OO $$$$",
"$ XoooooXX $ #O   $$",
"$$ XXXXX  $$ O@##@ $",
"$$$     $$$$$  O@# $",
"$$$$$$$$$$$$$$$   $$"
};
