/* XPM */
static char *result[] = {
/* columns rows colors chars-per-pixel */
"30 26 250 2 ",
"   c black",
".  c gray1",
"X  c #060606",
"o  c gray3",
"O  c #090A0A",
"+  c #0B0A0B",
"@  c #0A0B0B",
"#  c #0C0D0E",
"$  c #120A12",
"%  c #130C14",
"&  c #140C15",
"*  c #1F0E1F",
"=  c #0F1011",
"-  c #0F1112",
";  c #1E1F1F",
":  c #111421",
">  c #191C21",
",  c #1D1F20",
"<  c #251A27",
"1  c #271729",
"2  c #2F1E32",
"3  c #212223",
"4  c #2C2D2D",
"5  c #212E32",
"6  c #39233C",
"7  c #3A243D",
"8  c #3B253E",
"9  c gray19",
"0  c #37393A",
"q  c #222842",
"w  c #3E2640",
"e  c #2C3455",
"r  c #353E63",
"t  c #401C40",
"y  c #462B49",
"u  c #4F3552",
"i  c #523857",
"p  c #58315B",
"a  c #593E69",
"s  c #613C66",
"d  c #623D67",
"f  c #703872",
"g  c #753977",
"h  c #7D387D",
"j  c #424243",
"k  c #464646",
"l  c #46404C",
"z  c #474848",
"x  c #484949",
"c  c #4B4D4D",
"v  c #4A4F53",
"b  c #525353",
"n  c #545757",
"m  c #585858",
"M  c #5C5E5E",
"N  c #414A6C",
"B  c #48537B",
"V  c #49676F",
"C  c #5E6262",
"Z  c #5F767E",
"A  c #646767",
"S  c #676B6B",
"D  c #6A6F73",
"F  c gray44",
"G  c #787C7C",
"H  c #465388",
"J  c #48568C",
"K  c #5E799F",
"L  c #606B8F",
"P  c #6476BD",
"I  c #8C5D92",
"U  c #955C9A",
"Y  c #83668B",
"T  c #9D5BA3",
"R  c #A563AB",
"E  c #A365AB",
"W  c #A767AF",
"Q  c #A56DAC",
"!  c #A66DAD",
"~  c #A868B0",
"^  c #A968B0",
"/  c #B070B8",
"(  c #B171B9",
")  c #B173B9",
"_  c #B676BE",
"`  c #B878C0",
"'  c #BF7FC7",
"]  c #7C8080",
"[  c #73878E",
"{  c #75858D",
"}  c #6882A7",
"|  c #838788",
" . c #868C91",
".. c #868D94",
"X. c #949999",
"o. c #949A9A",
"O. c gray60",
"+. c #989E9E",
"@. c #9783A4",
"#. c #949CA4",
"$. c #959FA6",
"%. c #9AA1A5",
"&. c #9AA0A6",
"*. c #92A4A8",
"=. c #99A0A8",
"-. c #9CACB0",
";. c #A1A4A4",
":. c #A0A4A5",
">. c #A1A8AC",
",. c #A2A9AF",
"<. c #A8ABAB",
"1. c #A4ABB1",
"2. c #A8AEB5",
"3. c #A8B0B5",
"4. c #ABB1B7",
"5. c #AAB2B7",
"6. c #ADB4B4",
"7. c #ADB4B6",
"8. c #A7B0B8",
"9. c #ACB4B8",
"0. c #AFB7BB",
"q. c #B3B4B4",
"w. c #B3BABA",
"e. c #B0BDBE",
"r. c #919DC1",
"t. c #92A0CD",
"y. c #9BA8CC",
"u. c #BAAAC2",
"i. c #ADB7C6",
"p. c #B5BFCC",
"a. c #A5B5D8",
"s. c #8398EA",
"d. c #8098F8",
"f. c #8199F8",
"g. c #829AF8",
"h. c #839BF8",
"j. c #849CF8",
"k. c #869EF8",
"l. c #889FF8",
"z. c #88A0F8",
"x. c #89A1F8",
"c. c #8CA4F8",
"v. c #8DA5F8",
"b. c #8FA7F8",
"n. c #90A8F8",
"m. c #91A9F8",
"M. c #92AAF8",
"N. c #93ABF8",
"B. c #95A9F8",
"V. c #94ACF8",
"C. c #95ADF8",
"Z. c #97AFF8",
"A. c #98B0F8",
"S. c #9AB2F8",
"D. c #9CB2F8",
"F. c #9CB4F8",
"G. c #9EB6F8",
"H. c #9FB7F8",
"J. c #B0BFE4",
"K. c #A3B6F8",
"L. c #A0B8F8",
"P. c #A2B8F8",
"I. c #A3BBF8",
"U. c #A5BDF8",
"Y. c #A6BDF8",
"T. c #A6BEF8",
"R. c #AEBDF8",
"E. c #B0BEF6",
"W. c #C888D0",
"Q. c #CE8ED6",
"!. c #CF8FD7",
"~. c #B9C0C1",
"^. c #BCC1C1",
"/. c #BFC4C4",
"(. c #BEC5C5",
"). c #BBC3D8",
"_. c #BBC7E1",
"`. c #B7C4EC",
"'. c #A8C0F8",
"]. c #A9C1F8",
"[. c #ABC1F8",
"{. c #ACC0F8",
"}. c #AFC7F8",
"|. c #B0C8F8",
" X c #B1C8F8",
".X c #B2C9F8",
"XX c #B8CEF8",
"oX c #BACEF8",
"OX c #BBCFF8",
"+X c #BCD0F8",
"@X c #BED1F8",
"#X c #C3C4C4",
"$X c #C9CDD0",
"%X c #CAD2D3",
"&X c #CCD0D3",
"*X c #CDD2D2",
"=X c #CDD3D5",
"-X c #CCD3D6",
";X c #CDD4D4",
":X c #CED4D5",
">X c #CED4D6",
",X c #CFD6D7",
"<X c #C7D1DC",
"1X c LightGray",
"2X c #D4DADB",
"3X c #D7DDDD",
"4X c #C6CCE1",
"5X c #C5CFF0",
"6X c #C5D0F8",
"7X c #C4D3F8",
"8X c #C2D4F8",
"9X c #C7D5F8",
"0X c #C6D7F8",
"qX c #C9D9F8",
"wX c #D8DFF8",
"eX c #DFE3E4",
"rX c #DFE4E4",
"tX c #D4E0F8",
"yX c #D6E2F8",
"uX c #D7E2F8",
"iX c #D8E2F8",
"pX c #D9E2F8",
"aX c #DAE4F8",
"sX c #DFE8F8",
"dX c #E2E7E7",
"fX c #E4E6E7",
"gX c #E3E8E8",
"hX c #E8E9EA",
"jX c #EAEBEC",
"kX c #EAECEC",
"lX c #EBEDED",
"zX c #E1E5F8",
"xX c #E0E8F8",
"cX c #EAECF8",
"vX c #EBEFF8",
"bX c #EFF0F0",
"nX c #F3F4F4",
"mX c #F4F5F5",
"MX c gray96",
"NX c #F5F6F6",
"BX c gray97",
"VX c #F0F3F8",
"CX c #F2F4F8",
"ZX c #F4F6F8",
"AX c #F5F6F8",
"SX c #F6F7F8",
"DX c #F7F7F8",
"FX c #F7F8F8",
"GX c #F8F8F8",
"HX c None",
/* pixels */
"HXHXHXHXHXHXHXHXHXHXHXHXHXHXHXHXHXHXHXHXHXHXHXHXHXHXHXHXHXHX",
"HXHXHXHXHXHXHXHXHXHXHXHXHXHXHXHXHXHXHXHXHXHXHXHXHXHXHXHXHXHX",
"HXHXHXHXHXHXHXHXHXHXHXHXHX] m HXHXHXHXHXHXd.HXHXHXHXHXHXHXHX",
"HXHXHXHXHXHXHXHXHXHXHXHXHXx O.S #XHXHXHXHXHXHXHXHXHXHXHXHXHX",
"HXHXHXHXHXHXHXHXHXHXHXHXHX, 9.n 1XHXHXHXd.g.HXHXHXHXHXHXHXHX",
"HXHXHXHXHXHXHXHXHXHXHXHXHXrXGX$X2X*XHXHXHXI.v.HXHXHXHXHXHXHX",
"HXHXHXHXHXHXHXHXHXHXHXHX>.GXGXGXGXBX^.HXHXHXG.U.A.f.HXHXHXHX",
"HXHXI HXHXHXHXHXHXHXHXHX(.GXGXGXGXGXMX/.HXHXHXG.yXY.HXHXHXHX",
"% ) !.< HXHXHXHXHXHXHXHX..GXGXGXGX;X3.0.3 HXHXZ..XCXU.HXHXHX",
"& _ ! HXHXHXHXHXHXHXHXq.6. .nXcXzX_.h.x.x.x.d.d.I.AXvXL.h.HX",
"$ R u HXHXHXHXHXHXHXF ;.@ v -.a.E.R.x.F.F.}.V.K.9XSXVX8Xm.HX",
"HXp y HXHXHXHXHXHXHXA z   Z { [ 5.2.e L N m.m.{.vXGXGXaXU.j.",
"HX8 y HXHXHXHXHXHXHXC %.w.-XV 5 - =   O X.: d.h.[.AXGXZX0Xk.",
"HX6 ^ 2 HXHXHXHXHXHXHX+.jX$.bX*.e.~.p.i.<Xd.l.P.XXAXGXGXqXk.",
"HXHXU ` 7 HXHXHXHXc | &Xr.K y.5X} r m.m.m.m.+XsXsXDXGXGXqXk.",
"HXHXd _ ' Q s s G lXfX&XJ.B `.6Xt.g.V.V.V.V.V.V.'.AXGXGXqXk.",
"HXHXHXg ( Q.W./ ,X=X1.1.kXo.4 9 7.zX4X).B.d.d.N.uXFXGXxXD.f.",
"HXHXHXHXh W ~ E + ,.gXBX=.hX@.w HXHXHXJ f.h. XtXSXGXFXiXn.HX",
"HXHXHXHXHXf T 1 3XGXnX:X#.u.a HXHXHXHXv.].|.oXwXOXAXpXC.HXHX",
"HXHXHXHXHXHXt l NXmX=XD Y i HXHXHXHXz.A.A.A.M.c.7XtXV.HXHXHX",
"HXHXHXHXHXHX<.&.4.>XD # * P s.H q HXHXHXHXd.x.].@Xb.d.HXHXHX",
"HXHXHXHXHXk BXj X o HXHXHX> 8.%X; HXHXHXd.f.}.S.g.d.HXHXHXHX",
"HXHXHXHXHX0 eXM HXHXHXHXHXHXHXHXHXHXd.d.H.T.HXHXHXHXHXHXHXHX",
"HXHXHXHXHXHX:.dX. HXHXHXHXHXHXHXHXHXd.HXHXHXHXHXHXHXHXHXHXHX",
"HXHXHXHXHXHXHXb HXHXHXHXHXHXHXHXHXHXHXHXHXHXHXHXHXHXHXHXHXHX",
"HXHXHXHXHXHXHXHXHXHXHXHXHXHXHXHXHXHXHXHXHXHXHXHXHXHXHXHXHXHX"
};
