/* XPM */
static char *result[] = {
/* columns rows colors chars-per-pixel */
"20 29 9 1 ",
"  c black",
". c #406068",
"X c #803880",
"o c #A868B0",
"O c #9098A0",
"+ c #D090D8",
"@ c #D0D8D8",
"# c #F8F8F8",
"$ c None",
/* pixels */
"$$   $$$$$$$$$$$$$$$",
"$ o+o $$$$$$$$$$$$$$",
"$ +oX $  $$$$$$$  $$",
" o+X $$#@ $$$$$ @# $",
" +X $$ @#@     @#@ $",
" o $$$$ @#O###O#@ $$",
" X $$$$ @#######O $$",
" X $$$$ @######O@ $$",
" o $$$$ O#######O $$",
" Xo $$  @O#####O@ $$",
"$ oo  O @ @###@ @  $",
"$ X+o  O @ @#@ @ @ $",
"$$ o++o O @###@ O $$",
"$$ Xo++  O O@O O@ $$",
"$$$ Xo+ # @   @ # $$",
"$$$  oo O# @.@@ @O $",
"$$$$ X O @ .O.. #O $",
"$$$$$ OO # OXXO # $$",
"$$$$ OO  @  XXX . $$",
"$$$$ O ## @# X .#@ $",
"$$$$ O #O.@O   .@O $",
"$$$$$  ..O$ $ .#.  $",
"$$$$ O #@$ $ ##.#@  ",
"$$$$ O @O $$ @O @ O ",
"$$$ @OO  $$$$      $",
"$$ @#@O $$$$$$$$$$$$",
"$$ @.@ $$$$$$$$$$$$$",
"$$$ $@ $$$$$$$$$$$$$",
"$$$$  $$$$$$$$$$$$$$"
};
