/* XPM */
static char *result[] = {
/* columns rows colors chars-per-pixel */
"23 28 9 1 ",
"  c black",
". c #406068",
"X c #803880",
"o c #A868B0",
"O c #9098A0",
"+ c #D090D8",
"@ c #D0D8D8",
"# c #F8F8F8",
"$ c None",
/* pixels */
"$$$ $$$$$$$$$$$$$$$$$$$",
"$$ # $$$  $$$$$$$$$$$$$",
"$$ #O   #@ $$$$$$$$$$$$",
"$$ @@O@#@O $$$$$$$$$$$$",
"$$ ##@##O $$$$$$$$$$$$$",
"$ @######@ $$$$$$$$$$$$",
"$ ##O#####O $$$$$   $$$",
" @#O#O###O@ $$$$ XoX $$",
" @##O#@#@.O# $$$ o++o $",
" O#@ @#@@  # $$$ XooXo ",
"$ # X#@@.O @ $$$$    X ",
"$ #@#@@O@O#. $$$$$$$ X ",
"$ @@  O###O. $$$$$$ XX ",
"$$   @####.O $$$$$ Xo $",
"$ $   .@#@.O $$$$ X+X $",
" @ #@ #.OO@@O $$ o+o $$",
" @OO #@ .@##@@  X+oX $$",
" O.#O# +o@@OOO XooX $$$",
"$  O# Xo+oO##@ XoX $$$$",
"$$$  OOXXoO@##@ X $$$$$",
"$$$$ ..O XXO##@  $$$$$$",
"$$  O@O $   O@O $$$$$$$",
"$ O@@O $$$$$ OO $$$$$$$",
"$ $@O $$$$$$$ O@ $$$$$$",
"$$   $$$$$$$$ @#@ $$$$$",
"$$$$$$$$$$$$ @##@ $$$$$",
"$$$$$$$$$$$$ #.#O $$$$$",
"$$$$$$$$$$$$$    $$$$$$"
};
