/* XPM */
static char *result[] = {
/* columns rows colors chars-per-pixel */
"29 29 231 2 ",
"   c #060406",
".  c #0F0F10",
"X  c #1F0E1F",
"o  c #11151F",
"O  c #17181A",
"+  c #231324",
"@  c #241425",
"#  c #251526",
"$  c #2C162C",
"%  c #2B1B2D",
"&  c #331633",
"*  c #361736",
"=  c #331834",
"-  c #361836",
";  c #1A262C",
":  c #232323",
">  c #212224",
",  c #262727",
"<  c #272A2C",
"1  c #262A2F",
"2  c #2A2C2C",
"3  c #2A2C2E",
"4  c #2D2E2E",
"5  c #2F2031",
"6  c #362238",
"7  c #3A243D",
"8  c #3B243E",
"9  c #323232",
"0  c #373737",
"q  c #3A3A3B",
"w  c #393C3D",
"e  c #3D2640",
"r  c #283449",
"t  c #353F67",
"y  c #423146",
"u  c #463048",
"i  c #48324A",
"p  c #532E55",
"a  c #582758",
"s  c #4F3053",
"d  c #533256",
"f  c #553959",
"g  c #663869",
"h  c #693B6C",
"j  c #3C565C",
"k  c #364069",
"l  c #3A446C",
"z  c #39446E",
"x  c #3A4571",
"c  c #3E4673",
"v  c #464949",
"b  c #46494A",
"n  c #46494B",
"m  c #4B4B4C",
"M  c #4E4E4E",
"N  c #404E5B",
"B  c #505353",
"V  c #535656",
"C  c #545757",
"Z  c #525658",
"A  c #53575B",
"S  c #464D60",
"D  c #50576E",
"F  c #444E74",
"G  c #5E6262",
"H  c #5C6065",
"J  c #5B6168",
"K  c #5F6468",
"L  c #5F6469",
"P  c #646767",
"I  c #62686F",
"U  c #676C73",
"Y  c #696E74",
"T  c #424E80",
"R  c #47548A",
"E  c #4D6B85",
"W  c #5464A3",
"Q  c #596AAD",
"!  c #5B77A4",
"~  c #5F7AAD",
"^  c #5B6BB0",
"/  c #6273AB",
"(  c #6173BC",
")  c #6578C3",
"_  c #834786",
"`  c #884A8D",
"'  c #925A99",
"]  c #995C9D",
"[  c #93609A",
"{  c #A15EA6",
"}  c #8367B9",
"|  c #A267A8",
" . c #A36BAB",
".. c #B575BD",
"X. c #977CCE",
"o. c #9E7DCE",
"O. c #B878C0",
"+. c #BA7AC2",
"@. c #BE7EC6",
"#. c #7D8386",
"$. c #7F8588",
"%. c #7A8395",
"&. c #7282BD",
"*. c #6984C3",
"=. c #7086D8",
"-. c #7087D9",
";. c #778DE7",
":. c #798FE9",
">. c #7790E4",
",. c #7A93EB",
"<. c #7C94EE",
"1. c #848989",
"2. c #848A8C",
"3. c #858B8D",
"4. c #8A8F93",
"5. c #8B9298",
"6. c #919697",
"7. c #959A9A",
"8. c #979D9D",
"9. c #9D9E9E",
"0. c #969CA3",
"q. c #808EB8",
"w. c #A7A7A7",
"e. c #A6AAAF",
"r. c #A8AEAE",
"t. c #A8AEAF",
"y. c #B2B2B2",
"u. c #B3BABA",
"i. c #9780CA",
"p. c #8C9AC6",
"a. c #889CC8",
"s. c #9680D4",
"d. c #859BEE",
"f. c #869CEF",
"g. c #8198F3",
"h. c #859CF5",
"j. c #869DF6",
"k. c #8098F8",
"l. c #829AF8",
"z. c #849CF8",
"x. c #859DF8",
"c. c #869EF8",
"v. c #879FF8",
"b. c #A994E8",
"n. c #92A6ED",
"m. c #96ACEE",
"M. c #8BA1F4",
"N. c #88A0F8",
"B. c #89A1F8",
"V. c #8AA2F8",
"C. c #8BA3F8",
"Z. c #8CA4F8",
"A. c #8DA5F8",
"S. c #90A5F7",
"D. c #91A9F8",
"F. c #92AAF8",
"G. c #94ACF8",
"H. c #95ADF8",
"J. c #97AFF8",
"K. c #9CAEF8",
"L. c #98B0F8",
"P. c #99B1F8",
"I. c #9BB3F8",
"U. c #9CB4F8",
"Y. c #ACBCE6",
"T. c #A5B7F8",
"R. c #A0B8F8",
"E. c #A1B9F8",
"W. c #A2BAF8",
"Q. c #A7BBF8",
"!. c #A4BCF8",
"~. c #A5BDF8",
"^. c #ADBEF8",
"/. c #AEBFF8",
"(. c #C080C8",
"). c #CD8DD5",
"_. c #BAC0C3",
"`. c #BFC7C9",
"'. c #AAC2F8",
"]. c #ABC3F8",
"[. c #ACC4F8",
"{. c #ADC5F8",
"}. c #AEC6F8",
"|. c #B2C0F8",
" X c #B1C5F8",
".X c #B0C8F8",
"XX c #B6CCF8",
"oX c #B7CDF8",
"OX c #B8CEF8",
"+X c #BACFF8",
"@X c #BCD0F8",
"#X c #BDD0F8",
"$X c #BFD2F8",
"%X c gray76",
"&X c #C1C5C9",
"*X c #C1C6C9",
"=X c #C6CBCB",
"-X c #C4C9CC",
";X c #CFD5D5",
":X c #D2D5D5",
">X c #D9DBDD",
",X c #C7D6F8",
"<X c #C9D7F8",
"1X c #D0DDF8",
"2X c #D2DFF8",
"3X c #DFE4E4",
"4X c #D5E1F8",
"5X c #DCE6F8",
"6X c #E0E5E5",
"7X c #E3E5E6",
"8X c #E9EBEC",
"9X c #EAEDED",
"0X c #EBEDED",
"qX c #E0E8F8",
"wX c #E2E9F8",
"eX c #EAEFF8",
"rX c #EFF0F1",
"tX c #EDF0F8",
"yX c #F0F2F2",
"uX c #F1F2F2",
"iX c #F1F2F3",
"pX c #F4F4F4",
"aX c #F6F7F7",
"sX c #F0F3F8",
"dX c #F1F3F8",
"fX c #F2F4F8",
"gX c #F4F5F8",
"hX c #F4F6F8",
"jX c #F6F7F8",
"kX c #F8F8F8",
"lX c None",
/* pixels */
"lXlXlXlXlX    lXlXlXlXlXlXlXlXlXlXlXlXlXlXlXlXlXlXlXlXlXlX",
"lXlXlXlX6 O.+.s lXlXlXlXlXlXlXlXlXlXlXlXlXlXlXlXlXlXlXlXlX",
"lXlXlXlXf @.` & lXlX, lXlXlXlXlXlXlX, lXlXlXlXlXlXlXlXlXlX",
"lXlXlX% ..] * lXlX9.3XC lXlXlXlXlXC 3X9.lXlXlXlXlXlXlXlXlX",
"lXlXlX5 | - lXlXlXG :X6Xb m M m b 6X:XG lXlXlXlXlXlXlXlXlX",
"lXlXlX# h lXlXlXlXlX8.yX&XpXkXpX&X0X3.lXlXlXlXlXlXlXlXlXlX",
"lXlXlXX a lXlXlXlXlX8.yXkXkXkXkXiX-X#.lXlXlXlXlXlXlXlXlXlX",
"lXlXlX@ g lXlXlXlXlX$.8XkXkXkXkXuX*X$.lXlXlXlXlXlXlXlXlXlX",
"lXlXlX+ _ e lXlXlXlX2._.rXkX|.kXrX_.2.lXlXlXlXlXlXlXlXlXlX",
"lXlXlXlXp ' e lXlX> 8.Z =XaXk.aX=XZ 8.lXlXlXlXlXlXlXlXlXlX",
"lXlXlXlX$ {  .8 O A n 1.v ;Xk.;Xv 1.V P lXlXlXlXlXlXlXlXlX",
"lXlXlXlXlXd o.i.[ y H w 7.n.k.9X7.w K lXlXlXlXlXlXlXlXlXlX",
"lXlXlXlXlX= } b.).u . U 3 :.k.0.3 5.6.lXlXlXlXlXlXlXlXlXlX",
"lXlXlXlXlXlXc s.(.i w.0 t.h.{.f.t.q y.lXlXlXlXlXlXlXlXlXlX",
"lXlXlXlXlXlXz k.X.7 Y 7X: ;..Xj.u.2 `.L t lXlXlXlXlXlXlXlX",
"lXlXlXlXlXlXlXlXx I < r.M.k..X<.j 9 >XJ x lXlXlXlXlXlXlXlX",
"lXlXlXlXlXlXlXlXz.p.1 %XS.c..Xg.%.4 e.l z.lXlXlXlXlXlXlXlX",
"lXlXlXlXlXlXlXT U.D.k 4.d.{.$Xk.=.; ! D.U.lXlXlXlXlXlXlXlX",
"lXlXlXlXlXlXR F m.H.z.r -.{.kXZ.>.E z.P.lXlXlXlXlXlXlXlXlX",
"lXlXlXlXlXlX^ S &.R.A.~ ,.{.kX{.,.~ A.].lXlXlXlXlXlXlXlXlX",
"lXG.lXlXlXlXlXQ ( R.I.z.k.<XkX}.D.z.I.R.lXlXB.lXlXlXlXlXlX",
"lXlXlXlXlXlXlXC.k.D.'.U.J.dXkX.X[.U.'.D.V.L.lXlXlXD.lXlXlX",
"H.lXlXlXlX) / ^.K.F.,XOX2XjXkX4XXX1X'.F.T./.lXlXE.lXlXlXlX",
"lXlXlXlXa.D q.Q. X,XsXwXgXkXkXjXqXfX5X,X XQ.k.lXlXlXlXlXlX",
"lXlXlXlX/ B Y.N.W.$XeXkXkXkXkXkXkXkXeX$XW.N.lXlXlXlXlXlXlX",
"lXlXlXlXlXlXN *.v.!.#XtXkXkXkXkXkXtX#X!.v.lXlXlXlXlXlXlXlX",
"lXlXlXlXlXlXlXo W c.~.+X@XhXkXhX@X+X~.c.lXlXlXlXlXlXlXlXlX",
"lXlXlXlXlXlXlXlXlXlXlXx.'.oXoXoX'.x.lXlXlXlXlXlXlXlXlXlXlX",
"lXlXlXlXlXlXlXlXlXlXlXlXlXl.l.l.lXlXlXlXlXlXlXlXlXlXlXlXlX"
};
