/* XPM */
static char *result[] = {
/* columns rows colors chars-per-pixel */
"20 30 8 1 ",
"  c black",
". c #803880",
"X c #A868B0",
"o c #9098A0",
"O c #D090D8",
"+ c #D0D8D8",
"@ c #F8F8F8",
"# c None",
/* pixels */
"##  #######  #######",
"# @@ ##### @@ ######",
"# o@+     +@o ######",
"## o+@@@@@+o #######",
"## +@@@@@@@+  ######",
"## @@@@@@@@@ @ #####",
"## +@@@@@@@@ o@ ####",
"#  o@@+o+@@o o@ ####",
" @o o++@o+o @@ #####",
" o    o@o     ######",
"  +@o o@o o@+ ######",
"#  @@@o@o@@@ #######",
"## +@@@o@@@+ #######",
"## o++o@o++o #######",
"###  o@@@o  ########",
"#### @@@@@@ ####  ##",
"### o@@@@@@o ## XX #",
"### @o@@@@o@o # OOX ",
"## +@o@   o@+ # XOX ",
"## @@o XOX ++ ## OX ",
"# +@@ XOOOX + ## O. ",
"# +@@ XOOOOX ##  O #",
"# o@@ .XOOOOX  XOX #",
"## +@o .XOOOOOOOX ##",
"## o    .XXOOOX. ###",
"##  @@ #  .XX.  ####",
"# @@@o ###    ######",
" +@+o ##############",
"# oo ###############",
"##  ################"
};
