/* XPM */
static char *result[] = {
/* columns rows colors chars-per-pixel */
"30 28 131 2 ",
"   c #030304",
".  c #090509",
"X  c #0D0B0D",
"o  c #1E0D1E",
"O  c #0F1011",
"+  c #151515",
"@  c #171819",
"#  c #1A1B1D",
"$  c #2A1B2C",
"%  c #391B3A",
"&  c #1E2020",
"*  c #222324",
"=  c #2D2F2F",
"-  c #332035",
";  c #352A38",
":  c #2F3030",
">  c #343434",
",  c #3A3C3D",
"<  c #442145",
"1  c #4F244F",
"2  c #492D4C",
"3  c #543257",
"4  c #513855",
"5  c #5D3A62",
"6  c #643165",
"7  c #623D67",
"8  c #3C4244",
"9  c #424444",
"0  c #48444F",
"q  c #40494E",
"w  c #4E4E4E",
"e  c #4D4652",
"r  c #4D4D54",
"t  c #514655",
"y  c #5E4C5E",
"u  c #405157",
"i  c #4E5153",
"p  c #535454",
"a  c #505459",
"s  c #565858",
"d  c #5C5E5E",
"f  c #4E5E62",
"g  c #5B5F62",
"h  c #614466",
"j  c #694C6E",
"k  c #6A526F",
"l  c #695270",
"z  c #5E6162",
"x  c #5F6469",
"c  c #656565",
"v  c #62666A",
"b  c #656969",
"n  c #6B6D6F",
"m  c #676C71",
"M  c #6A6E71",
"N  c #61777F",
"B  c #6E7579",
"V  c #737373",
"C  c #737A7C",
"Z  c #7A7D7D",
"A  c #677B83",
"S  c #6C7F87",
"D  c #797F84",
"F  c #8B458D",
"G  c #87548E",
"H  c #895E8F",
"J  c #924E96",
"K  c #955199",
"L  c #9A5DA1",
"P  c #A163A8",
"I  c #AA6AB2",
"U  c #AC73B3",
"Y  c #B074B7",
"T  c #B375BB",
"R  c #B87FBF",
"E  c #BB7BC3",
"W  c #7C8383",
"Q  c #7D9096",
"!  c #828485",
"~  c #86898B",
"^  c #8D8E8F",
"/  c #848B92",
"(  c #8D9395",
")  c #84969B",
"_  c #8B9399",
"`  c #919696",
"'  c #999C9C",
"]  c #949FA5",
"[  c #9A9FA2",
"{  c #A28EAE",
"}  c #B58CBD",
"|  c #B192B4",
" . c #8FA1A6",
".. c #93A0A6",
"X. c #9EA3A6",
"o. c #9BA4AA",
"O. c #99AAAE",
"+. c #A2A5A5",
"@. c #A4A7A8",
"#. c #A7AAAA",
"$. c #AAACAD",
"%. c #ABAFB4",
"&. c #ADB2B3",
"*. c #ACB6BA",
"=. c #ADB8BC",
"-. c #B2B2B2",
";. c #B4B9BA",
":. c #B8BABB",
">. c #BCA7C4",
",. c #B6BDC1",
"<. c #B9BFC3",
"1. c #C181C9",
"2. c #CC8DD4",
"3. c #BBC2C4",
"4. c #BFC5C8",
"5. c #C2C5C6",
"6. c #C2C7CB",
"7. c #C4CACC",
"8. c #C8CFD1",
"9. c #CCD1D3",
"0. c #D0D5D6",
"q. c #D5DADB",
"w. c #DDE2E2",
"e. c #E1E5E5",
"r. c #E6E7E9",
"t. c #E6E9E9",
"y. c #EBEDED",
"u. c #EEF0F0",
"i. c #F2F3F3",
"p. c #F8F8F8",
"a. c None",
/* pixels */
"a.a.a.a.a.a.a.a.a.a.a.a.a.  a.a.a.a.a.a.a.a.a.a.a.a.a.a.a.a.",
"a.a.a.a.a.a.a.a.a.a.X   b r.b a.a.a.a.a.a.a.a.a.a.a.a.a.a.a.",
"a.a.a.a.a.a.a.a.a.w r.W n ! a.a.a.a.a.a.a.a.a.a.a.a.a.a.a.a.",
"a.a.a.a.a.a.a.a.a.z +.z 5.v a.a.a.a.a.a.a.a.a.a.a.a.a.a.a.a.",
"a.a.a.a.a.a.a.a.s q.7.5.p.y.Z a.a.a.a.a.a.a.a.a.a.a.a.a.a.a.",
"a.a.a.a.a.a.a.s e.p.p.p.p.p.9.i a.a.a.a.a.a.a.a.a.a.a.a.a.a.",
"a.a.a.a.a.a.s e.p.p.p.p.p.p.t.b a.a.a.a.a.a.a.a.a.a.$ $ a.a.",
"a.a.a.a.a.* 9.t.e.i.p.p.p.p.w.z a.a.a.a.a.a.a.a.a.a.1.Y - a.",
"a.a.a.a.a.a.B ..3.w.p.p.p.t.4.C a.a.a.a.a.a.a.a.a.a.U 2.I   ",
"a.p a.a.a.a.. y u.w.p.p.i.&.C 3.' a.a.a.a.a.a.a.a.a.7 2.I   ",
"  t./ a.a.a.e | t.t.i.q.=.B # 9 5.c a.a.a.a.a.a.a.a.a.Y L   ",
"a.W %.a.a.# _ Z _ 9.4.) A A 8   W c a.a.a.a.a.a.a.a.a.L 1 a.",
"a.V 5.p X d 8   # f 8 8 A Q W i _ s a.a.a.a.a.a.a.a.a.L . a.",
"a.! 7.0.z 4.z i v m f f O.=.q.8.( a.a.a.a.a.a.a.a.a.2 P . a.",
"a.a.Z V r b z i b C  .3.q.o. .q.@.a.a.a.a.a.a.a.a.2 Y K . a.",
"a.a.a.a.a.a.a.a.a.a.8 ~ <.3.)  .:.' W a.a.a.a.2 5 Y E < a.a.",
"a.a.a.a.a.a.a.a.a.a.M #.q.$.W ,.8.r.y.+.k 7 7 I E E I X a.a.",
"a.a.a.a.a.' ^ M ' #.' d s b ;.0.,.<.0.q.} E 1.2.E K 2 a.a.a.",
"a.a.a.a.#.3.:., p w = $ l +.0.7.q.7.*.n H T T T K % a.a.a.a.",
"a.a.a.. d $.> a.a.a.a.a.h >.,.,.y.i.e.%.t G I K % a.a.a.a.a.",
"a.a.a.$.W &.a.a.a.a.a.a.a.j { o.6.y.p.i.w 6 F % a.a.a.a.a.a.",
"a.a.+ i.&.a.a.a.a.a.a.a.a.r 3 4 m 6.u.p.[ ; o a.a.a.a.a.a.a.",
"a.a.a.: a.a.a.a.a.a.a.9 :.o.0 . O m 6.,.[ :.&.a.a.a.a.a.a.a.",
"a.a.a.a.a.a.a.a.a.a.8 3.3.v a.a.a.a.& # # :.i.> a.a.a.a.a.a.",
"a.a.a.a.a.a.a.a.a.a.a.# @ a.a.a.a.a.a.a.a.-.w.> a.a.a.a.a.a.",
"a.a.a.a.a.a.a.a.a.a.a.a.a.a.a.a.a.a.a.a.! t.=.* a.a.a.a.a.a.",
"a.a.a.a.a.a.a.a.a.a.a.a.a.a.a.a.a.a.a.a.#.w., a.a.a.a.a.a.a.",
"a.a.a.a.a.a.a.a.a.a.a.a.a.a.a.a.a.a.a.a.a.  a.a.a.a.a.a.a.a."
};
