/* XPM */
static char *result[] = {
/* columns rows colors chars-per-pixel */
"25 30 210 2 ",
"   c black",
".  c #020202",
"X  c gray2",
"o  c #060606",
"O  c #0B0C0C",
"+  c #0C0C0C",
"@  c #0E0F10",
"#  c #101111",
"$  c #131415",
"%  c gray11",
"&  c #271127",
"*  c #351735",
"=  c #1E2022",
"-  c #272727",
";  c #272929",
":  c #282829",
">  c #282929",
",  c #2A2A2B",
"<  c #282B2D",
"1  c #312F36",
"2  c #352C39",
"3  c #313132",
"4  c #343434",
"5  c #242B46",
"6  c #3D2640",
"7  c #3E2641",
"8  c #3A3D40",
"9  c #353C54",
"0  c #532453",
"q  c #552555",
"w  c #613C65",
"e  c #623E67",
"r  c #663669",
"t  c gray25",
"y  c #424343",
"u  c #4A4D50",
"i  c #505353",
"p  c #525558",
"a  c #65406A",
"s  c #69426E",
"d  c #6A466E",
"f  c #6B4370",
"g  c #6F4A74",
"h  c #724176",
"j  c #76497C",
"k  c gray42",
"l  c #676B70",
"z  c #6C6F73",
"x  c #6D7379",
"c  c #787D7D",
"v  c #7B7D7F",
"b  c #7D4D83",
"n  c #727C93",
"m  c #5464A3",
"M  c #5A6BAE",
"N  c #6A7ECD",
"B  c #823F83",
"V  c #843F85",
"C  c #96569C",
"Z  c #9C5EA2",
"A  c #9F62A6",
"S  c #A265A9",
"D  c #A566AD",
"F  c #A472AA",
"G  c #AB76B1",
"H  c #AD72B4",
"J  c #B079B7",
"K  c #B676BE",
"L  c #B877BF",
"P  c #BA7AC2",
"I  c #7F8284",
"U  c #798ACD",
"Y  c #7389E0",
"T  c #848484",
"R  c #848689",
"E  c #888C8C",
"W  c #8B8C8E",
"Q  c #848B90",
"!  c #8A8E92",
"~  c #899199",
"^  c #909293",
"/  c #95979A",
"(  c #A4ACB2",
")  c #A5ADB2",
"_  c #A3ACB8",
"`  c #ACB2B7",
"'  c #ADB4B9",
"]  c #ADB5B9",
"[  c #B9BCBF",
"{  c #8290C0",
"}  c #8C9ACB",
"|  c #9DB2DD",
" . c #B6BDC1",
".. c #8198F4",
"X. c #8098F8",
"o. c #8198F8",
"O. c #8199F8",
"+. c #829AF8",
"@. c #849CF8",
"#. c #859DF8",
"$. c #879EF8",
"%. c #889EF8",
"&. c #8EA3F3",
"*. c #88A0F8",
"=. c #89A0F8",
"-. c #8AA2F8",
";. c #8BA3F8",
":. c #8DA3F8",
">. c #8CA4F8",
",. c #8FA4F8",
"<. c #91A9F8",
"1. c #94ACF8",
"2. c #96AEF8",
"3. c #9CAFF8",
"4. c #98B0F8",
"5. c #99B1F8",
"6. c #9AB2F8",
"7. c #9CB4F8",
"8. c #9DB5F8",
"9. c #9EB6F8",
"0. c #A4BAEA",
"q. c #A4B5F8",
"w. c #A0B8F8",
"e. c #A1B9F8",
"r. c #A2BAF8",
"t. c #A3BBF8",
"y. c #A4B8F8",
"u. c #A4BCF8",
"i. c #A5BDF8",
"p. c #A6BDF8",
"a. c #A6BEF8",
"s. c #A7BFF8",
"d. c #A9BBF8",
"f. c #ABBBF8",
"g. c #B1BFF8",
"h. c #C080C8",
"j. c #C181C9",
"k. c #C484CC",
"l. c #C585CD",
"z. c #C989D1",
"x. c #CA8AD2",
"c. c #CE8ED6",
"v. c #CF8FD7",
"b. c #D090D8",
"n. c #B9C1C4",
"m. c #BAC7EC",
"M. c #A8C0F8",
"N. c #A9C1F8",
"B. c #AAC1F8",
"V. c #AAC2F8",
"C. c #ABC3F8",
"Z. c #AEC1F8",
"A. c #ADC5F8",
"S. c #AEC6F8",
"D. c #B6C6F8",
"F. c #B0C8F8",
"G. c #B5CBF8",
"H. c #BCD0F8",
"J. c #BDD1F8",
"K. c #BED1F8",
"L. c #C0C6C6",
"P. c #C2C5C9",
"I. c #C5C9CD",
"U. c #C7CBCF",
"Y. c #C8CCD0",
"T. c #CCD3D4",
"R. c #CED6D6",
"E. c #D0D0D0",
"W. c #D3D6D8",
"Q. c #D0D8D8",
"!. c #D4DBDB",
"~. c #D9DCDE",
"^. c #DBDDDF",
"/. c #C0CBF8",
"(. c #C0D3F8",
"). c #C6D6F8",
"_. c #C9D9F8",
"`. c #CCDAF8",
"'. c #CEDCF8",
"]. c #D0D9F8",
"[. c #D3DFF8",
"{. c #D7DFF8",
"}. c #D8DFF8",
"|. c #DDE0E1",
" X c #DDE1E2",
".X c #DEE0E2",
"XX c #D4E0F8",
"oX c #DBE5F8",
"OX c #E0E5E5",
"+X c #E3E4E6",
"@X c #E5E7E8",
"#X c #E3E8E8",
"$X c #E7EBEB",
"%X c #E8EAEB",
"&X c #EAEBEC",
"*X c #EBECED",
"=X c #E3EAF8",
"-X c #E4E8F8",
";X c #E6EAF8",
":X c #EAEFF8",
">X c #EBF0F8",
",X c #ECF0F8",
"<X c #EDF0F8",
"1X c #EDF1F8",
"2X c #F3F5F8",
"3X c #F4F5F8",
"4X c #F4F6F8",
"5X c #F6F7F8",
"6X c #F8F8F8",
"7X c None",
/* pixels */
"7X7X7X7X7X7X7X7X7X7X7X7XX.7X7X7X7X7X7X7X7X7X7X7X7X",
"7X7X7X7X7X7X7X7X7X7X*.<.<.<.-.7X7X7X7X7X7X7X7X7X7X",
"7X7X7X7X7X7X7X7XX.8.a.'.oXXXM.8.@.7X7X7X7X7X7X7X7X",
"7X7X7X7X7X7X7X7XM.K.,X4X6X5X,X).N.7X7X7X7X7X7X7X7X",
"7X7X7.;.7X7X+.a.G.6X6X6X6X6X6X6XJ.C.+.7X7X7X7X7X7X",
"7X7X7XF.7X7Xy.B.=X2X1X6X6X4X>X:X=Xp.Z.X.7X7X7X7X7X",
"6.7X7X7X7X7Xd.:.2._.(.<X6X`.J.H.5.=.D.7X7X4.7X7X7X",
"7X7X7X7X7X7X#.X.i.s.;.{.6XF.e.t.a.O.1.7X7X7X7X7X7X",
"7X7X7X7X7XX.7X7XF.X.o.r.3XM.X.X.V.7X7XX.7X7X7X7X7X",
"7X7X7X7X7X7X7X7Xu.3./.r.3X9.g.f.w.| 7X7X7X7X7X7X7X",
"7X7X7X7X7X7X7Xi.X.m./.r.[.X.g.].$.0.7X7X7X7X7X7X7X",
"7X7X7X7X7X7X7X-.5  ./.-.S.,.-XY.9 >.m 7X7X7X7X7X7X",
"7X7X7X7X7X7X7X}.~ < } X.A.&.n.8 E.;X7X7X7X7X7X7X7X",
"7X7X7X7X7X7XY n ; , @ M A.N O : > 7X7X7X7X7X7X7X7X",
"7X7X7X7X7X7X7X7Xc &X/ U 6.{ W +XE 7X7X7X7X7X7X7X7X",
"7X7X7X7X7X7X7X7X  #X6Xq.X.^.6X$X% 7X7X7X7X7X7X7X7X",
"7X7X7X7X7X7X7X7X  ) !._ ..( !.' $ 7X7X7X7X7X7X7X7X",
"7X7X7X7X7X7X7X7X7X7Xu |.%.%Xz + 7X7X7X7X7X7X7X7X7X",
"7X7X7X7X7X7X7X7X7X7X^ 6Xg.6X6Xv 7X7X7X7X7 7X7X7X7X",
"7X7X7X7X7X7X7X7X7X3 I.@X6X6X.XU.l 7X7Xg h.w 7X7X7X",
"7X7X7X7X7X7X7X7X7XL.U.~.4 - p W.T.7X7Xa x.A 7X7X7X",
"7X7X7X7X7X7X7X7X# 6XP.1 S x.f I R.7X7X7XG Z 7X7X7X",
"7X7X7X7X7X7X7X7XQ.6XT j c.b.l.e R 7X7X7XG 0 7X7X7X",
"7X7X7X7X7X7X7X7X] 6XT r L b.b.k.s 7X7Xd H 7X7X7X7X",
"7X7X7X7X7X7X7X7X= OX[ 2 B K b.b.z.F J P 6 7X7X7X7X",
"7X7X7X7X7X7X7X7X  x o . 7XV D j.v.x.C * 7X7X7X7X7X",
"7X7X7X7X7X7X7X7Xt k *Xy 7X7X& h b q 7X7X7X7X7X7X7X",
"7X7X7X7X7X7X7Xi 6X X! 7X7X7X7X7X7X7X7X7X7X7X7X7X7X",
"7X7X7X7X7X7X7X7X` Q 7X7X7X7X7X7X7X7X7X7X7X7X7X7X7X",
"7X7X7X7X7X7X7X7XX 7X7X7X7X7X7X7X7X7X7X7X7X7X7X7X7X"
};
