/* XPM */
static char *result[] = {
/* columns rows colors chars-per-pixel */
"30 25 221 2 ",
"   c black",
".  c #010102",
"X  c #040404",
"o  c #070708",
"O  c #080508",
"+  c gray3",
"@  c #080809",
"#  c #090909",
"$  c #09090A",
"%  c gray4",
"&  c #0F0E10",
"*  c #120712",
"=  c #190F1A",
"-  c #0E1416",
";  c #101314",
":  c #161717",
">  c #171819",
",  c #181A1A",
"<  c #181A1B",
"1  c #191B1C",
"2  c #271829",
"3  c #28182A",
"4  c #172225",
"5  c #1F2022",
"6  c #222323",
"7  c #202224",
"8  c #222426",
"9  c #232626",
"0  c #252525",
"q  c #27292B",
"w  c #2A2D2F",
"e  c #242F32",
"r  c #372039",
"t  c #39273B",
"y  c #3B253E",
"u  c #2C3033",
"i  c #303233",
"p  c #363738",
"a  c #393B3B",
"s  c #3A3C3F",
"d  c gray24",
"f  c #3D3F40",
"g  c #432D46",
"h  c #4A2E4D",
"j  c #463049",
"k  c #49334C",
"l  c #553559",
"z  c #5C3960",
"x  c #6F3971",
"c  c gray26",
"v  c #444747",
"b  c #474A4C",
"n  c gray29",
"m  c gray30",
"M  c #484C50",
"N  c #4A4E51",
"B  c #4D5256",
"V  c #4F5457",
"C  c #40555C",
"Z  c #515558",
"A  c #505459",
"S  c #585C5C",
"D  c #5E4162",
"F  c #565C61",
"G  c #585D62",
"H  c #5E5F60",
"J  c #6A426F",
"K  c #654A6C",
"L  c #724F76",
"P  c #7A407D",
"I  c #5F6060",
"U  c #5C6166",
"Y  c #5D6368",
"T  c #5B686E",
"R  c #506B71",
"E  c #546B71",
"W  c #516E75",
"Q  c #557279",
"!  c #5E787F",
"~  c #606060",
"^  c #626B6E",
"/  c #696A6A",
"(  c #6A6E6E",
")  c #696D70",
"_  c #6B7070",
"`  c #6C7071",
"'  c #6B7075",
"]  c #637379",
"[  c #707475",
"{  c #727676",
"}  c #70767B",
"|  c #757878",
" . c #7C5681",
".. c #6E7E86",
"X. c #7E7185",
"o. c #767C82",
"O. c #787D81",
"+. c #787E82",
"@. c #834185",
"#. c #815985",
"$. c #86568C",
"%. c #835A88",
"&. c #875D8C",
"*. c #906495",
"=. c #977D9A",
"-. c #947A9F",
";. c #A160A8",
":. c #A774AE",
">. c #A868B0",
",. c #AC6CB4",
"<. c #AD6DB5",
"1. c #B06FB7",
"2. c #AA74B1",
"3. c #AD71B5",
"4. c #B07AB6",
"5. c #B171B9",
"6. c #B272BA",
"7. c #B676BE",
"8. c #BA7AC2",
"9. c #BF7FC7",
"0. c #6C858B",
"q. c #7D8080",
"w. c #7B8188",
"e. c #798B91",
"r. c #798E92",
"t. c #838787",
"y. c gray52",
"u. c #83888C",
"i. c #878C8C",
"p. c #878D8D",
"a. c #888888",
"s. c #898B8C",
"d. c gray56",
"f. c #818A91",
"g. c #8A9090",
"h. c #8F9494",
"j. c #8A929A",
"k. c #8C959D",
"l. c #8C989F",
"z. c #8E9C9F",
"x. c #929595",
"c. c #9199A1",
"v. c #959DA4",
"b. c #979EA6",
"n. c #A288A9",
"m. c #9CA2A5",
"M. c #9DA3A5",
"N. c #9AA2A8",
"B. c #9CA3AA",
"V. c #A0A6A7",
"C. c #A2A6A6",
"Z. c #A4A5A5",
"A. c #A0A8AE",
"S. c gray66",
"D. c #AFA1B6",
"F. c #A5ACB2",
"G. c #A7AEB4",
"H. c #A8AEB2",
"J. c #A8AEB4",
"K. c #A7B0B1",
"L. c #ACB1B2",
"P. c #ACB3B3",
"I. c #ABB3B4",
"U. c #ABB3B7",
"Y. c #AEB6B9",
"T. c #B3BBBD",
"R. c #BCBEBE",
"E. c #BB81C3",
"W. c #B5BDC0",
"Q. c #B5BDC1",
"!. c #B6BEC1",
"~. c #BCBFC2",
"^. c #C085C7",
"/. c #C282CA",
"(. c #C787CF",
"). c #CA8BD1",
"_. c #CA8AD2",
"`. c #CB8BD3",
"'. c #D090D8",
"]. c #B9C1C4",
"[. c #BAC1C4",
"{. c #BCC3C6",
"}. c #BEC5C7",
"|. c #BFC4C8",
" X c #C2C7CA",
".X c #C4C7CB",
"XX c #C0C8CA",
"oX c #C3C8CB",
"OX c #C3CBCD",
"+X c #C4CCCE",
"@X c #C8CBCE",
"#X c #C8CBCF",
"$X c #CCCBCF",
"%X c #C9CCCC",
"&X c #C9CAD1",
"*X c #C8D0D1",
"=X c #CBD3D4",
"-X c #CDD5D5",
";X c #CED6D6",
":X c #D1D6D8",
">X c #D3D7D9",
",X c #D2DADA",
"<X c #D4D9D9",
"1X c #D6DBDC",
"2X c #DCDFDF",
"3X c #DAE0E0",
"4X c #DBE1E1",
"5X c #DFE1E3",
"6X c #DFE3E3",
"7X c #E2E4E5",
"8X c #E3E6E6",
"9X c #E5E7E8",
"0X c #E6E8E9",
"qX c #E6EAEA",
"wX c #E7EAEA",
"eX c #E9EAEB",
"rX c #EAEBEB",
"tX c #E9ECEC",
"yX c #EAEDED",
"uX c #F8F8F8",
"iX c None",
/* pixels */
"iXiXiXiXiXiX# iXiXiXiXiXiXiXiXiXiXiXiXiXiXiXiXiXiXiXiXiXiXiX",
"iXiXiXiXiX| tXd iXiXiXiXiXiXiXiXiXiXiXiXiXiXiXiXiXiXiXiXiXiX",
"iXiXiXiXiXa.1Xb iXiXiXiXiXiXiXiXiXiXiXiXiXiXiXiXiXiXiXiXiXiX",
"iXiXiXiXp S.#XF., c c iXiXiXiXiXiXiXiXiXiXiXiXiXiXiXiXiXiXiX",
"iXiXiX[ >XuXuXC.~ 8X@XiXiXiXiXiXiXiXiXiXiXiXiXiXiXiXiXiXiXiX",
"iXiXq.tXuXuXuXd.~.Q.B iXiXiXiXiXiXiXiXiXiXiXiXiXiXiXiXiXiXiX",
"iX6 yXuX5X5XuXuX{.N M iXiXiXiXiXiXiXiXiXiXiXiXiXiXiXiXiXiXiX",
"iX0 uX7XoX9XuXqX,XU Y.iXiXiXiXiXiXiXiXiXiXiXiXiXiXiXiXiXiXiX",
"iXO.0Xu.s.uXuX3XU.c.iXp.iXiXiXiXiXiXiXiXiXiXiXiXiXiXiXiXiXiX",
"$ +XL.t =.yXuX3XN.iXiXiXiXiXiXiXiXiXiXiXiXiXiXiXiXiXiXiXiXiX",
"o G.rX$X&XqX|.B.w j.iXiXiXiXiXiXiXJ 2.4.:.iXiXiXiXiXiXiXiXiX",
"iX7 G.}.v.b.[.=XR wXk.iXiXiXiXiX .).'.<.,.^.*.iXiXiXiXiXiXiX",
"iXiX        i.A.eX,X-Xw.iXiXiXz /.6.>.O   = 6.&.iXiXiXiXiXiX",
"iXiXiXiXiXiXY XXQ f.W K.X & l 9.7.@.* iXiXiX2 3.L iXiXiXiXiX",
"iXiXiX1 ; > F T.! 9 I.E v D.E._.1.3 iXiXiXiXiXk #.iXiXiXiXiX",
"iXiXi z.] l.u +.J.;Xa R.M.S n.>.P iXiXiXiXiXiXj `.D iXiXiXiX",
"iXiX< A ^ 0.4 ( Z.h.g.H H.` K ;.r iXiXiXiXiXiXy 8.%.iXiXiXiX",
"iXiXiX5 T C - n e I / 2Xy.) -.x iXiXiXiXiXiXiXy 8.(.g iXiXiX",
"iXiXiXiXiX8 m %Xe. X6X_ t.:XX.iXiXiXiXiXiXiXiXiX$.5.y iXiXiX",
"iXiXiXiXiXiXx.].V .Xr.1 ].4X{ iXiXiXiXiXiXiXiXiXiXh iXiXiXiX",
"iXiXiXiXiXiXiXs @ <X..@ Z !.m.iXiXiXiXiXiXiXiXiXiXiXiXiXiXiX",
"iXiXiXiXiXiXiXiXG f q : V.W.' iXiXiXiXiXiXiXiXiXiXiXiXiXiXiX",
"iXiXiXiXiXiXiXiXiX. + P.OX} iXiXiXiXiXiXiXiXiXiXiXiXiXiXiXiX",
"iXiXiXiXiXiXiXiXiXiX% *Xo.iXiXiXiXiXiXiXiXiXiXiXiXiXiXiXiXiX",
"iXiXiXiXiXiXiXiXiXiXiXiXiXiXiXiXiXiXiXiXiXiXiXiXiXiXiXiXiXiX"
};
