/* XPM */
static char *result[] = {
/* columns rows colors chars-per-pixel */
"23 28 9 1 ",
"  c black",
". c #406068",
"X c #803880",
"o c #A868B0",
"O c #9098A0",
"+ c #D090D8",
"@ c #D0D8D8",
"# c #F8F8F8",
"$ c None",
/* pixels */
"$$$$$$  $$$$$$$  $$$$$$",
"$$$$$ ## $$$$$ ## $$$$$",
"$$$$$ O#@     @#O $$$$$",
"$$$$$$ O@#####@O $$$$$$",
"$$$$$$ @#######@ $$$$$$",
"$$$$$$ ####O@### $$$$$$",
"$$$$$$ ###@#O### $$$$$$",
"$$$$$$ O##O#O@#O $$$$$$",
"$$$$$$    O#O    $$$$$$",
"$$$$$$@#O O@O O#@$$$$$$",
"$$  $ $##@@.@@##$ $  $$",
"$ @@ O.##@O@O@##.O @@ $",
" @OO #.@   #@O#@.# OO@$",
" O@O@#  o+o #O@O #@O@O$",
" OO@# o++++o @O  @#@OO$",
"$ O  o+ooo++o O $ OO  $",
"$$   +o  Xo++ O@ $   $$",
"$$$ o+  Xoo++o # $$$$$$",
"$$$ ++ @ Xoo+o ## $$$$$",
"$$$ ++ @ XoooX @@ $$$$$",
"$$$ ++o O XXX O@O $$$$$",
"$$$ o++ @     @@ $$$$$$",
"$$$$ oo O $$$ @O $$$$$$",
"$$$$$  #@ $$$ #@O $$$$$",
"$$$$$ @OO $$$ OO@ $$$$$",
"$$$$ @OO $$$$$ OO@ $$$$",
"$$$$ O.O $$$$$ O.O $$$$",
"$$$$$   $$$$$$$   $$$$$"
};
