/* XPM */
static char *result[] = {
/* columns rows colors chars-per-pixel */
"23 24 10 1 ",
"  c black",
". c #406068",
"X c #803880",
"o c #A868B0",
"O c #008080",
"+ c #9098A0",
"@ c #D090D8",
"# c #D0D8D8",
"$ c #F8F8F8",
"% c None",
/* pixels */
"%%%%%%  %%%%%%%  %%%%%%",
"%%%%% $$ %%%%% $$ %%%%%",
"%%%%% #$#     #$# %%%%%",
"%%%%%% #$+$$#+$# o %%%%",
"%%%%%% $$$$$$$$+ @o %%%",
"%%%%%% $$$$$$$$$ o@ %%%",
"%%%%%% +$$$$$$$+ X@o %%",
"%%%%%% #+$$$$$+#  oo %%",
"%%%%%  # #$$$# #  XX %%",
"%%%% + $X #$# X$ +  %%%",
"%%%% ## $#$$$#$ ## %%%%",
"%%%% .+$ +#$#+ $+. %%%%",
"%%% #+ #$     $+%+# %%%",
"%% #+ % $$#+#$$%O%+# %%",
"% $+   # ++#++ +%%%$# %",
"  +$ $ $++$$$++#%$%$+ %",
" $. #+ $+$$@$$+$%+#%.#%",
" ++   +###@@@###%%  #+%",
"%  %%% +#ooooo#+ %%%  %",
"%%%%%%% +  o  + %%%%%%%",
"%%%%%% +#+   +#+ %%%%%%",
"%%%%% +## %%% ##+ %%%%%",
"%%%%% #+# %%% #+# %%%%%",
"%%%%%%   %%%%%   %%%%%%"
};
