/* XPM */
static char * D:\linux\42\so_long\ronflex\down_l_xpm[] = {
"30 30 10 1",
" 	c None",
".	c #000000",
"+	c #788890",
"@	c #406068",
"#	c #F8E098",
"$	c #D8A860",
"%	c #B87020",
"&	c #703800",
"*	c #F8F8F8",
"=	c #A8B0B8",
"                              ",
"                              ",
"       ....  ....  ....       ",
"       .+@@..@@@@..@++.       ",
"       .++@@@++++@@++@.       ",
"       .@+++++++++++@@.       ",
"       ..@++++++++++@..       ",
"       .@++@@@++@@@++@.       ",
"       .++@##$@@$#$@+@.       ",
"       .+@#########$@@.       ",
"       .@@##########@@.       ",
"       .@$%&&%##%&&%$@..      ",
"      ...$#########$$.@@.     ",
"     .@+..$#*&%%&*$$.@@@@.    ",
"    .++++@.&$###$$&.@@++@.    ",
"   .@++@@@@@&&&&&&@@+@+++@.   ",
"  .=@@@.@@+$##$$$$$$$+.++@.   ",
"  .*.@.@@$$##########$.+++.   ",
"   .*.@@+$############.@++.   ",
"    ..@@$$############.@++.   ",
"     .@@$$############.@++.   ",
"     .@@$$$$#########&=*+@.   ",
"      .@&$&$$$$####$$$.@*.    ",
"     .=.*.*&$$$$$$$$$$%..     ",
"     .%$$$%.$$$$$$$$$%...     ",
"     .$$$$$%.$$$$$$%%.%%=.    ",
"      .$%%%$..%$$%...=.*.     ",
"       .%%%.  ....   ...      ",
"        ...                   ",
"                              "};
