/* XPM */
static char * D:\linux\42\so_long\ronflex\up_r_xpm[] = {
"30 30 8 1",
" 	c None",
".	c #000000",
"+	c #406068",
"@	c #788890",
"#	c #F8F8F8",
"$	c #A8B0B8",
"%	c #B87020",
"&	c #D8A860",
"                              ",
"                              ",
"       ....  ....  ....       ",
"       .+@+..++++..++@.       ",
"       .+@@++@@@@+++@@.       ",
"       .++@@@@@@@@@@@+.       ",
"       ..++@@@@@@@@@+..       ",
"       .++@@@@@@@@@@@+.       ",
"       .+@@@@@@@@@@@@@.       ",
"       .+@@@@@@@@@@@@@.       ",
"       .+@@@@@@@@@@@@+.       ",
"      ..++@@@@@@@@@@@+.       ",
"     .++.++@@@@@@@@@+...      ",
"    .+@++.++@@@@@@@+++++.     ",
"   .+@@++++++@@@@+++++@@+.    ",
"  .++@+.+++@@@@@@@+++.+@@.    ",
"  .+@+.+++@@@@@@@@@@++.+@.    ",
" .#+++.++@@@@@@@@@@@@+...     ",
"  .#+.++@@@@@@@@@@@@@@++.     ",
"   .$+++@@@@@@@@@@@@@@++.     ",
"    .+++@@@@@@@@@@@@@@++.     ",
"    .+++@@@@@@@@@@@@@+++.     ",
"    ..+++@@@@@@@@@@@++++.     ",
"    .%.+++@@@@@@@@@++++.      ",
"     ..++++@@@@@@@@+...       ",
"       ..++++++++++.&&..      ",
"         ..+++++++.&%%&.      ",
"           .......&%%%%.      ",
"                 ......       ",
"                              "};
